<?xml version="1.0" encoding="utf-8" ?>
<svg baseProfile="full" height="300mm" version="1.1" viewBox="0,0,200,300" width="200mm" xmlns="http://www.w3.org/2000/svg" xmlns:ev="http://www.w3.org/2001/xml-events" xmlns:xlink="http://www.w3.org/1999/xlink"><defs /><rect fill="#222222" height="300" width="200" x="0" y="0" /><text fill="#FFFFFF" style="font-size:12px; font-family:Arial; font-weight:bold;" x="10" y="20">Over 1km Runs</text><text fill="#FFFFFF" style="font-size:4px; font-family:Arial" x="10" y="280">ATHLETE</text><text fill="#FFFFFF" style="font-size:9px; font-family:Arial" x="10" y="290">back</text><text fill="#FFFFFF" style="font-size:4px; font-family:Arial" x="65" y="280">SPECIAL TRACKS</text><rect fill="yellow" height="2.6" width="2.6" x="65" y="283" /><text fill="#FFFFFF" style="font-size:3px; font-family:Arial" x="70" y="285.5">Over 20.0 km</text><rect fill="red" height="2.6" width="2.6" x="65" y="287" /><text fill="#FFFFFF" style="font-size:3px; font-family:Arial" x="70" y="289.5">Over 40.0 km</text><text fill="#FFFFFF" style="font-size:4px; font-family:Arial" x="120" y="280">STATISTICS</text><text fill="#FFFFFF" style="font-size:3px; font-family:Arial" x="120" y="285">Number: 12</text><text fill="#FFFFFF" style="font-size:3px; font-family:Arial" x="120" y="290">Weekly: 1.3</text><text fill="#FFFFFF" style="font-size:3px; font-family:Arial" x="141" y="285">Total: 56.5 km</text><text fill="#FFFFFF" style="font-size:3px; font-family:Arial" x="141" y="290">Avg: 4.7 km</text><text fill="#FFFFFF" style="font-size:3px; font-family:Arial" x="167" y="285">Min: 1.1 km</text><text fill="#FFFFFF" style="font-size:3px; font-family:Arial" x="167" y="290">Max: 5.3 km</text><polyline fill="none" points="51.44591524731368,38.01643618079834 45.850134460255504,37.4262676727958 39.74564632773399,34.475423314841464 34.912926556542516,33.590169416507706 26.519255375489593,34.7705078877043 23.721364981494844,36.54101468366571 22.44959662016481,38.60660456912592 21.686535603366792,41.55744468537159 20.923474587500095,54.836187730776146 19.651706226170063,64.57389364833944 16.853815832175314,74.90172751573846 16.090754816308618,80.21317048603669 16.345108488574624,82.57380865514278 17.362523176707327,84.63936546398327 20.160413570702076,86.70492078945972 22.958303964696825,87.0 25.24748701415956,86.40984154795296 39.74564632773399,80.80333021027036 44.578366099856794,78.14761049696244 47.88496383745223,74.6066470623482 51.19156157504767,65.45913800480776 52.71768360864371,63.68864901829511 61.36570846196264,58.08209336758591 62.89183049555868,56.01651747711003 63.40053784009069,53.95094010233879 63.14618416689336,51.590278428280726 62.12876947969198,49.52469787350856 58.05911072343588,44.508281774120405 56.02428134717047,40.96727690496482 53.48074462544173,38.60660456912592 51.44591524731368,38.01643618079834 45.34142711665481,37.4262676727958 38.47387796640396,33.88525407994166 36.69340226240456,33.590169416507706 27.28231639135629,35.36067694006488 25.24748701415956,36.24593029264361 23.21265763603151,38.60660456912592 22.195242948830128,40.96727690496482 20.160413570702076,53.06569220172241 19.651706226170063,64.57389364833944 16.853815832175314,78.73777064564638 16.599462159909308,81.09841002663597 16.853815832175314,83.16396789625287 17.616876848973334,84.63936546398327 19.142998882569373,85.81968297506683 22.44959662016481,87.0 26.264901703223586,86.40984154795296 40.50870734360069,80.21317048603669 45.850134460255504,77.26237004669383 48.39367118291557,74.6066470623482 52.97203728184104,65.16405658237636 54.75251298677176,63.68864901829511 61.36570846196264,58.96733972383663 62.63747682329267,57.196846739389 63.40053784009069,55.721435086103156 63.40053784009069,53.36077486583963 62.383123151026666,49.81978090084158 56.02428134717047,40.08202500548214 53.98945196997374,38.311520389979705 51.44591524731368,37.4262676727958 45.595780787058175,36.836099044186994 40.76306101679802,33.88525407994166 37.710816950537264,33.0 31.86068249028176,34.475423314841464 25.756194358691573,37.131183373508975 23.975718652829528,39.19677283382043 22.958303964696825,41.26236081006937 22.703950292430818,45.39353230968118 20.414767242968082,55.721435086103156 19.906059899367392,63.68864901829511 16.345108488574624,79.32793067279272 16.345108488574624,81.39348981319927 16.853815832175314,83.45904747000895 18.379937865771353,85.22952428087592 19.397352553904057,85.81968297506683 21.686535603366792,86.40984154795296 24.230072326026857,86.11476227641106 33.89551186840981,83.45904747000895 45.087073443457484,77.26237004669383 47.630610165186226,74.6066470623482 52.463329936377704,64.86897513037547 54.75251298677176,62.80340411653742 61.36570846196264,59.55750380991958 63.14618416689336,57.78701118892059 63.90924518369138,55.721435086103156 63.90924518369138,53.655857499688864 62.12876947969198,50.40994686447084 57.804757052101195,45.98369918228127 54.75251298677176,41.26236081006937 52.2089762641117,38.90168871684 50.17414688691497,38.01643618079834 45.34142711665481,37.4262676727958 40.50870734360069,35.36067694006488 37.96517062280327,34.7705078877043 27.28231639135629,37.4262676727958 24.48442599736154,38.60660456912592 22.703950292430818,40.96727690496482 20.923474587500095,48.344365461030975 19.906059899367392,57.49192897952162 19.651706226170063,65.16405658237636 16.599462159909308,78.73777064564638 16.599462159909308,82.57380865514278 17.362523176707327,84.34428601153195 18.125584192574024,85.52460364252329 19.906059899367392,86.40984154795296 23.721364981494844,86.70492078945972 31.606328818015754,84.04920652811415 37.45646327827126,81.68856956902891 45.850134460255504,76.96728983684443 48.39367118291557,74.31156658055261 52.2089762641117,65.75421939603984 53.48074462544173,63.68864901829511 61.874415807425976,58.08209336758591 63.14618416689336,56.31159983854741 63.6548915123567,54.24602267565206 63.14618416689336,52.18044402892701 62.12876947969198,50.114863896975294 57.804757052101195,45.39353230968118 54.49815931357443,40.37710900232196 52.97203728184104,38.90168871684 50.4285005601123,38.311520389979705 44.578366099856794,38.01643618079834 40.0,35.36067694006488 36.947755933739245,34.475423314841464 27.536670063622296,36.54101468366571 24.738779669627547,37.72135194251314 23.721364981494844,38.90168871684 22.958303964696825,40.67219296912663 20.923474587500095,52.18044402892701 19.397352553904057,64.27881213487126 17.362523176707327,73.42632494936697 16.345108488574624,79.91809057863429 17.108169505372643,83.16396789625287 18.63429153803736,84.93444488733076 19.651706226170063,85.52460364252329 21.9408892756328,85.81968297506683 24.230072326026857,85.52460364252329 43.560951409861445,78.14761049696244 48.13931750971824,75.78696869220585 50.17414688691497,72.8361637108028 52.97203728184104,65.45913800480776 55.51557400263846,62.80340411653742 60.85700111836195,58.67225763597526 62.383123151026666,56.901764469454065 62.89183049555868,54.54110521893017 62.63747682329267,52.47552678361535 61.62006213422865,50.40994686447084 57.296049708500504,46.86894926452078 54.243805640377104,41.55744468537159 51.95462259184569,39.49185692099854 49.41108587011695,38.60660456912592 44.06965875532478,38.01643618079834 39.23693898320198,35.065592428902164 36.439048590138555,33.88525407994166 28.299731079488993,35.065592428902164 24.738779669627547,36.836099044186994 23.467011309228837,38.90168871684 22.958303964696825,41.26236081006937 22.44959662016481,45.68861576169729 19.397352553904057,63.98373059136793 16.853815832175314,75.1968079379294 16.599462159909308,81.39348981319927 17.362523176707327,83.45904747000895 18.888645209372044,84.93444488733076 22.44959662016481,85.81968297506683 32.11503616254777,84.63936546398327 35.93034124560654,83.16396789625287 44.83271977119148,78.44269058597274 46.86754914838821,76.67220959556289 48.39367118291557,74.90172751573846 51.44591524731368,66.63946338999085 52.2089762641117,65.45913800480776 53.735098296776414,63.68864901829511 62.12876947969198,58.377175516914576 63.14618416689336,56.901764469454065 63.90924518369138,54.836187730776146 62.383123151026666,51.29519558255561 57.804757052101195,45.09844882856123 55.006866658106446,40.08202500548214 52.2089762641117,37.72135194251314 49.156732198782265,37.131183373508975 44.324012426659465,38.01643618079834 40.50870734360069,35.36067694006488 37.96517062280327,34.475423314841464 26.519255375489593,36.54101468366571 24.230072326026857,37.4262676727958 22.958303964696825,38.90168871684 22.195242948830128,40.67219296912663 21.686535603366792,46.57386593450792 18.888645209372044,60.737831618171185 18.379937865771353,66.934544660151 16.090754816308618,78.44269058597274 16.090754816308618,82.57380865514278 17.362523176707327,84.34428601153195 18.63429153803736,84.93444488733076 22.195242948830128,85.52460364252329 32.11503616254777,83.16396789625287 42.54353672172874,79.32793067279272 45.850134460255504,77.55745022767223 47.630610165186226,76.08204902382568 51.70026892051101,67.52470711036585 53.48074462544173,65.16405658237636 61.874415807425976,58.96733972383663 62.89183049555868,57.78701118892059 63.6548915123567,55.721435086103156 63.14618416689336,53.06569220172241 61.874415807425976,51.000112707260996 57.804757052101195,46.27878257376142 54.75251298677176,41.26236081006937 52.97203728184104,39.78694097860716 50.4285005601123,39.19677283382043 44.06965875532478,39.19677283382043 42.03482937812805,38.311520389979705 38.21952429506928,35.065592428902164 36.184694916941226,34.18033871217631 27.28231639135629,36.24593029264361 23.721364981494844,37.72135194251314 22.703950292430818,38.90168871684 22.195242948830128,41.26236081006937 21.9408892756328,45.98369918228127 20.66912091523409,51.590278428280726 18.888645209372044,66.63946338999085 16.599462159909308,76.67220959556289 16.345108488574624,82.57380865514278 16.853815832175314,84.63936546398327 17.871230522170663,85.81968297506683 20.414767242968082,87.0 22.703950292430818,87.0 29.062792096287012,85.52460364252329" stroke="#4dd2ff" stroke-linecap="round" stroke-linejoin="round" stroke-width="0.5"><title>2024-11-22 5.0km</title><desc>12958464239</desc></polyline><polyline fill="none" points="110.02940418943763,40.75696778553538 104.11462735943496,38.66855541849509 98.1998505294323,38.37021067249589 89.97059580963105,39.56358947325498 87.39895371068269,40.75696778553538 86.37029687128961,41.950345606775954 82.25566951092333,51.1990071113687 80.19835583120584,63.729404783807695 77.11238531116396,77.15477091539651 76.59805689193308,81.33153884205967 76.85522110108286,84.0166007685475 77.62671373039484,85.8066406743601 79.42686320189387,86.70166021422483 84.0558189805597,87.0 90.22776002064347,84.91162085859105 98.1998505294323,81.03319847513922 104.11462735943496,77.45311167999171 106.42910524923354,75.06638470105827 109.51507576927543,67.0111666759476 110.8008968187496,64.92277317354456 111.82955365907401,64.0277469267603 120.57313679903746,59.85095413401723 122.88761468790472,57.46421270049177 123.65910731814802,55.674155338900164 123.40194310899824,53.585753690684214 121.85895784851164,50.602320161415264 118.00149469822645,46.425508075160906 115.17268838919699,41.353656756691635 112.60104628931731,38.966900133527815 110.54373260959983,38.66855541849509 104.88611998967826,38.966900133527815 99.4856715798378,34.79007132630795 97.428357899189,34.19338100682944 94.34238738007843,34.49172618263401 85.34164003096521,37.176831379532814 83.5414905603975,39.86193409701809 80.45552004128695,50.900663651758805 79.42686320189387,57.16586988326162 78.14104215148836,69.69624183163978 76.34089268185198,81.62987917871214 77.11238531116396,84.61328085977584 78.65537057165056,86.40332039841451 82.25566951092333,87.0 86.11313266120851,86.40332039841451 94.59955159015954,82.82324021775275 104.37179157044739,77.15477091539651 106.68626945931464,74.76804369036108 109.51507576927543,67.90619200328365 111.31522523891181,64.62443112256005 120.83030100911856,58.65758366254158 122.37328626774251,56.86752703576349 122.88761468790472,55.077469306532294 122.37328626774251,52.392380646197125 121.34462942834944,50.602320161415264 117.74433048814535,45.828820143127814 114.65835996903479,40.75696778553538 112.85821049939841,38.966900133527815 110.8008968187496,38.071865894598886 105.14328419975936,38.071865894598886 100.0,35.08841643994674 97.68552211020142,34.19338100682944 94.59955159015954,34.49172618263401 86.11313266120851,36.87848648033105 85.08447582088411,37.77352108666673 84.0558189805597,39.86193409701809 83.02716214116663,44.63544391444884 79.68402741104364,54.48078315262683 78.91253478080034,59.25426895916462 76.85522110108286,75.06638470105827 76.59805689193308,79.83983670012094 77.11238531116396,84.3149408295285 77.88387794140726,85.50830076751299 79.42686320189387,86.70166021422483 83.02716214116663,86.70166021422483 87.91328212991357,85.50830076751299 92.28507369942963,83.41992055531591 99.4856715798378,79.54149618046358 104.88611998967826,76.85643011890352 107.45776208955795,74.17136157886125 111.31522523891181,65.22111519402824 112.34388207923621,64.0277469267603 120.05880837794393,59.55261156219058 122.11612205952406,57.46421270049177 122.63045047875494,55.077469306532294 122.37328626774251,52.98906722920947 120.31597258802503,49.1106022472959 114.14403154794127,41.353656756691635 111.82955365907401,39.86193409701809 109.00074734911323,38.966900133527815 105.14328419975936,38.966900133527815 103.34313472919166,38.071865894598886 100.5143284201622,35.685106575954705 98.45701474044472,35.08841643994674 88.68477476015687,36.87848648033105 85.59880424011499,38.071865894598886 84.0558189805597,40.16027869051322 83.02716214116663,41.950345606775954 79.16969899088144,58.95592632610351 77.11238531116396,75.06638470105827 76.59805689193308,80.13817718997598 77.36954952217638,84.61328085977584 79.16969899088144,86.40332039841451 83.5414905603975,86.70166021422483 88.9419389711693,84.91162085859105 95.88537263963372,81.62987917871214 105.40044840890914,75.96140754804946 108.22925472073257,72.38131450652145 111.82955365907401,64.0277469267603 120.05880837794393,58.95592632610351 121.60179363749921,57.16586988326162 122.88761468790472,54.48078315262683 121.85895784851164,51.1990071113687 115.17268838919699,41.353656756691635 113.11537470947951,39.26524481829256 111.31522523891181,38.37021067249589 105.40044840890914,37.47517624893226 103.34313472919166,36.58014155062847 100.25716420914978,34.49172618263401 97.428357899189,33.895035800524056 89.97059580963105,35.08841643994674 85.08447582088411,37.176831379532814 83.79865477140993,38.66855541849509 82.7699979301542,40.75696778553538 76.85522110108286,75.36472568055615 76.85522110108286,83.41992055531591 77.88387794140726,85.50830076751299 79.68402741104364,86.70166021422483 83.02716214116663,86.70166021422483 89.7134316014126,84.3149408295285 105.91477683000267,76.2597484360449 108.48641892895103,73.87302047642879 111.82955365907401,65.22111519402824 112.85821049939841,63.43106260965578 121.34462942834944,58.35924096754752 122.37328626774251,57.16586988326162 123.14477889798582,55.375812337500975 122.88761468790472,52.392380646197125 121.60179363749921,50.00563308689743 118.25865890923887,46.12716412474401 115.17268838919699,41.055312286363915 112.60104628931731,38.66855541849509 111.31522523891181,38.37021067249589 105.65761261899024,38.66855541849509 100.5143284201622,35.08841643994674 97.68552211020142,34.49172618263401 90.74208844080567,35.685106575954705 86.62746108043939,37.47517624893226 84.82731161080301,39.56358947325498 83.5414905603975,42.24868998583406 82.7699979301542,47.0221958826296 79.42686320189387,59.85095413401723 78.39820636063814,68.20453371829353 76.59805689193308,75.96140754804946 76.34089268185198,79.83983670012094 76.85522110108286,83.41992055531591 78.14104215148836,85.20996082830243 78.91253478080034,85.8066406743601 82.7699979301542,86.1049805523362 87.91328212991357,84.61328085977584 105.14328419975936,75.06638470105827 107.97209050972015,72.08297322131693 112.08671786822379,63.729404783807695 119.03015153948218,59.55261156219058 121.60179363749921,56.56918415799737 122.88761468790472,53.585753690684214 122.11612205952406,51.1990071113687 117.74433048814535,46.12716412474401 114.65835996903479,41.055312286363915 111.82955365907401,38.66855541849509 104.88611998967826,38.071865894598886 100.7714926302433,34.19338100682944 97.17119369003922,33.0 93.31373054068536,33.298345297342166 87.65611792076379,35.38676152378321" stroke="#4dd2ff" stroke-linecap="round" stroke-linejoin="round" stroke-width="0.5"><title>2024-11-14 5.0km</title><desc>12899239828</desc></polyline><polyline fill="none" points="180.9086901061237,57.25681272032671 182.65108094830066,53.79156656493433 182.40216797124594,50.037545080529526 179.6641252199188,45.70597560494207 175.9304305575788,42.52948708366603 166.22282443661243,39.641767133260146 160.24891297705472,38.486678323708475 153.03043663036078,38.77545057144016 149.7945679249242,39.35299497540109 147.05652517266572,40.219311360502616 145.81196028459817,41.95194333069958 143.82065646443516,50.32631614245474 141.082613713108,56.390501582063735 139.58913584798574,60.43328461237252 139.0913098938763,63.32098322012462 137.8467450067401,73.4279050056357 137.34891905076802,80.35834467224777 137.59783202875406,83.53479048097506 139.0913098938763,85.55616321857087 142.0782656231895,87.0 145.56304730754346,86.71123270248063 150.79021983314306,84.97862829943188 163.9826076393947,78.62573635671288 167.2184763457626,76.6043586381711 169.20978016592562,74.00544229592197 172.69456185027957,65.05360096250661 174.43695269245654,63.32098322012462 181.40651606116444,58.70066402480006 182.65108094830066,56.96804237016477 183.14890690427274,54.94664909108542 182.8999939262867,52.63648356567137 181.9043420171365,50.32631614245474 177.67282139975578,46.57229003426619 174.68586567044258,41.663171409396455 172.19673589523882,39.641767133260146 164.7293465724215,38.77545057144016 159.50217404495925,35.02140904893167 157.51087022572756,34.44386375346221 149.54565494600683,35.59895422356203 146.30978624057025,36.465271764434874 144.31848242040724,38.486678323708475 143.57174348738045,40.79685546993278 137.34891905076802,75.44928500545211 137.34891905076802,81.80218412028626 138.59348393883556,84.1123256967403 140.58478775899857,85.84493063436821 144.816308375448,85.84493063436821 151.0391328111291,83.82355810306035 165.9739114586264,75.44928500545211 168.21412825677544,72.56159884715453 172.19673589523882,64.18729222519323 173.9391267383471,62.45467394939624 180.65977712906897,58.98943419661373 182.1532549932599,57.25681272032671 182.8999939262867,55.2354196482338 182.65108094830066,52.925254359608516 181.65542903915048,50.32631614245474 177.42390842270106,45.41720406897366 174.68586567044258,40.219311360502616 172.69456185027957,38.486678323708475 170.20543207600713,37.90913374093361 164.7293465724215,37.90913374093361 159.50217404495925,34.44386375346221 155.76847938355058,33.0 151.53695876616985,33.0 147.05652517266572,34.44386375346221 145.56304730754346,35.31018165079877 144.31848242040724,37.04281664453447 143.32283051032573,39.35299497540109 137.34891905076802,75.16051652259193 137.10000607464463,79.2032725806348 137.59783202875406,83.24602282838896 138.34457096084952,84.97862829943188 139.83804882597178,86.13369801966473 143.57174348738045,86.71123270248063 146.0608732616529,86.13369801966473 157.26195724774152,80.93588054040447 165.9739114586264,76.02682188083418 168.46304123476148,72.85036759614013 172.44564887322485,64.18729222519323 180.9086901061237,58.411893823416904 182.40216797124594,56.96804237016477 183.14890690427274,54.36910788808018 182.8999939262867,52.34771274123341 181.65542903915048,50.037545080529526 180.16195117402822,48.30491809104569 177.17499544471502,45.99474711040966 174.43695269245654,41.08562747947872 173.19238780532032,39.35299497540109 171.9478229181841,38.77545057144016 169.70760612096637,38.19790604664013 164.23152061644942,38.19790604664013 159.25326106790453,35.02140904893167 156.76413129270077,34.44386375346221 148.79891601391137,36.176499280845746 145.56304730754346,37.62036140472628 144.31848242040724,39.0642227884382 143.82065646443516,40.50808342988603 144.0695694424212,46.28351858723909 141.33152669109404,55.2354196482338 140.0869618030265,64.18729222519323 137.8467450067401,75.16051652259193 138.0956579828635,83.24602282838896 138.84239691589028,84.6898607944604 140.58478775899857,85.84493063436821 144.56739539746195,86.13369801966473 153.27934960834682,83.82355810306035 165.22717252653092,77.47066355287097 166.9695633687079,75.7380534580443 168.21412825677544,74.00544229592197 171.2010839851573,67.36375629133545 172.69456185027957,64.47606183355674 181.65542903915048,58.411893823416904 183.14890690427274,56.390501582063735 183.39781988132745,54.36910788808018 182.8999939262867,52.058941887458786 182.1532549932599,50.61508717434481 178.17064735479653,45.99474711040966 175.43260460160673,40.219311360502616 172.9434748282656,38.486678323708475 170.45434505399317,37.90913374093361 165.22717252653092,38.77545057144016 159.50217404495925,35.59895422356203 157.26195724774152,35.02140904893167 148.0521770818159,36.75404421961866 145.56304730754346,37.62036140472628 144.31848242040724,39.641767133260146 143.0739175323397,46.86106145102531 140.3358747800812,55.81296067405492 138.84239691589028,67.94129482842982 137.34891905076802,72.85036759614013 136.85109309572726,77.18189527839422 136.60218011867255,79.78080868534744 137.10000607464463,82.09095192165114 138.34457096084952,84.40109326131642 140.3358747800812,85.84493063436821 143.57174348738045,86.13369801966473 146.30978624057025,85.55616321857087 153.77717556338757,82.09095192165114 164.7293465724215,76.02682188083418 167.96521527785808,72.56159884715453 172.19673589523882,64.76483141235076 174.68586567044258,62.45467394939624 180.65977712906897,58.70066402480006 181.65542903915048,57.545583040453494 182.65108094830066,55.52419017627835 182.40216797124594,52.34771274123341 181.40651606116444,49.74877399019897 175.68151757959276,41.95194333069958 172.44564887322485,39.35299497540109 170.45434505399317,38.486678323708475 164.7293465724215,38.77545057144016 158.50652213487774,35.31018165079877 156.51521831471473,35.59895422356203 151.0391328111291,37.04281664453447 147.30543814972043,37.04281664453447 145.31413432955742,37.90913374093361 143.82065646443516,39.35299497540109 143.0739175323397,41.08562747947872 140.3358747800812,52.63648356567137 140.0869618030265,55.2354196482338 140.0869618030265,60.7220546065364 137.59783202875406,73.13913631555624 137.59783202875406,80.93588054040447 139.0913098938763,84.1123256967403 140.8337007360533,85.55616321857087 143.82065646443516,85.84493063436821 147.80326410382986,85.2673957736697 153.03043663036078,82.95725514600053 165.22717252653092,76.89312697318383 167.71630230080336,74.29421089752577 171.9478229181841,65.34237048192881 172.9434748282656,64.18729222519323 176.92608246672899,61.87713428679854 179.91303819604218,59.278204339323565 181.65542903915048,57.25681272032671 182.40216797124594,54.657878504367545 182.1532549932599,52.34771274123341 180.41086415201426,49.17123171896674 177.67282139975578,45.70597560494207 174.43695269245654,40.219311360502616 171.9478229181841,38.486678323708475 169.45869314298034,37.90913374093361 164.9782595494762,38.486678323708475 163.73369466140866,38.19790604664013 159.00434809084982,35.02140904893167 156.76413129270077,34.15509106218815 153.77717556338757,34.44386375346221 146.0608732616529,37.04281664453447 144.56739539746195,39.0642227884382 143.57174348738045,41.08562747947872 143.0739175323397,50.32631614245474 140.3358747800812,63.32098322012462 137.34891905076802,75.44928500545211 137.10000607464463,79.2032725806348 137.59783202875406,81.80218412028626 138.34457096084952,83.82355810306035 140.3358747800812,85.2673957736697 143.82065646443516,85.55616321857087 153.27934960834682,83.24602282838896 157.0130442706868,81.80218412028626 165.47608550451696,77.18189527839422 167.96521527785808,74.58297946862876 171.9478229181841,65.91990943299606 174.43695269245654,63.32098322012462 180.9086901061237,58.98943419661373 182.40216797124594,56.96804237016477 182.65108094830066,54.657878504367545 182.1532549932599,51.77017100341618 180.9086901061237,49.74877399019897 177.17499544471502,45.70597560494207 174.1880397144705,41.3743994589895 171.44999696221203,39.35299497540109 168.9608671888709,38.77545057144016 165.22717252653092,39.35299497540109 163.9826076393947,39.0642227884382 160.24891297705472,36.176499280845746 157.75978320278227,35.31018165079877 149.0478289918974,36.465271764434874 145.81196028459817,37.62036140472628 144.31848242040724,39.0642227884382 143.57174348738045,41.3743994589895 142.8250045562163,46.28351858723909 140.8337007360533,55.2354196482338 140.0869618030265,63.89852258632891 137.34891905076802,78.3369681998156 137.34891905076802,81.51341629051603 138.34457096084952,84.1123256967403 140.0869618030265,85.55616321857087 142.3271785993129,86.42246537655592 145.0652213525027,85.84493063436821 151.28804578911513,83.53479048097506 161.74239084217697,78.62573635671288 165.47608550451696,76.31559027498588 168.71195421088487,72.56159884715453 172.69456185027957,64.76483141235076 173.9391267383471,63.60975291766226 179.91303819604218,60.1445145891048 181.65542903915048,58.411893823416904 182.65108094830066,56.96804237016477 182.8999939262867,54.657878504367545 182.65108094830066,52.925254359608516 181.40651606116444,50.61508717434481 173.69021375942975,39.93053926201537 171.44999696221203,38.77545057144016 169.45869314298034,38.19790604664013 163.9826076393947,37.90913374093361 159.25326106790453,35.02140904893167 156.76413129270077,34.15509106218815 154.27500151842833,34.44386375346221 148.30109005980194,36.176499280845746 145.31413432955742,38.19790604664013 143.32283051032573,42.52948708366603 141.33152669109404,52.925254359608516" stroke="#4dd2ff" stroke-linecap="round" stroke-linejoin="round" stroke-width="0.5"><title>2024-11-02 5.0km</title><desc>12806221353</desc></polyline><polyline fill="none" points="50.30132372304797,97.72135194251314 45.21425027959049,97.4262676727958 41.144591523334384,93.88525407994166 37.837993785738945,93.0 24.86595650576055,97.4262676727958 23.594188144430518,98.3115203899797 22.576773455366492,100.08202500548214 20.541944078169763,107.45911583327688 19.015822045505047,120.44274971215054 15.454870635643601,139.62301064049825 15.709224306978285,143.16396789625287 16.472285322844982,144.93444488733076 18.252761028707027,146.40984154795296 19.524529389105737,147.0 23.085480798967183,146.70492078945972 33.76833503134549,142.86888829106465 40.635884179733694,140.2131704860367 47.5034333281219,136.3771293249447 50.04697004985064,133.72140552313067 54.11662880331278,124.86897513037547 55.64275083690882,123.0984857804142 62.25594631396234,117.49192897952162 63.78206834662706,115.42635266412981 64.03642201982439,113.65585749968886 63.01900732982904,110.1148638969753 58.44064123183489,104.5082817741204 55.897104510106146,100.08202500548214 53.60792145971209,98.01643618079834 51.064384737983346,97.72135194251314 44.19683558959514,98.3115203899797 39.872823162935674,94.7705078877043 36.82057909667492,93.88525407994166 30.207383619621396,95.06559242890216 25.629017521627247,97.13118337350897 23.594188144430518,100.08202500548214 22.576773455366492,104.5082817741204 20.541944078169763,111.59027842828073 16.2179316515103,134.6066470623482 15.963577979244292,141.09841002663597 16.980992668308318,144.34428601153195 18.761468372307718,146.11476227641106 22.576773455366492,146.70492078945972 27.40949322655797,145.5246036425233 37.58364011347294,141.39348981319927 47.249079655855894,136.08204902382568 49.792616376653314,133.42632494936697 52.590506771579385,127.22962590004317 54.37098247651011,123.98373059136793 62.76465365849435,118.37717551691458 64.54512936342508,115.42635266412981 64.54512936342508,112.77060950826854 64.03642201982439,111.2951955825556 62.76465365849435,109.52469787350856 58.18628755956888,105.68861576169729 55.13404349330813,100.08202500548214 52.590506771579385,98.01643618079834 44.45118926279247,98.60660456912592 40.635884179733694,95.36067694006488 38.09234745800495,94.7705078877043 26.900785882025957,97.13118337350897 24.10289548896253,98.60660456912592 22.8311271276325,100.67219296912663 19.778883062303066,113.95094010233879 16.2179316515103,138.14761049696244 16.2179316515103,142.27872899081558 17.235346339643,144.04920652811415 19.27017571683973,145.5246036425233 22.068066111765802,145.81968297506683 26.900785882025957,144.93444488733076 36.31187175307423,141.6885695690289 47.75778700038791,136.6722095955629 50.04697004985064,133.42632494936697 52.590506771579385,127.52470711036585 54.11662880331278,124.27881213487126 62.25594631396234,118.37717551691458 63.78206834662706,116.01651747711003 64.03642201982439,114.54110521893017 63.78206834662706,112.18044402892701 63.01900732982904,111.000112707261 58.44064123183489,106.27878257376142 54.62533614970744,99.78694097860716 52.33615309931338,98.3115203899797 44.95989660639316,98.3115203899797 43.179420901462436,97.4262676727958 39.364115819334984,94.47542331484146 37.074932768940926,93.5901694165077 34.53139604721218,93.88525407994166 28.935615259222686,95.36067694006488 26.646432210691273,96.2459302926436 24.357249160297215,98.01643618079834 22.322419783100486,101.8525285308715 20.79629775043577,108.04928228189237 19.778883062303066,121.0329134943895 16.72663899511099,137.55745022767223 16.72663899511099,140.50825036293827 17.489700011909008,142.57380865514278 18.252761028707027,144.04920652811415 20.03323673363775,145.5246036425233 21.305005094967782,145.81968297506683 24.86595650576055,145.5246036425233 46.4860186399892,137.55745022767223 49.28390903305262,134.90172751573846 53.86227513290942,124.86897513037547 55.64275083690882,122.80340411653742 60.22111693676561,120.1476677749306 61.74723897036165,118.67225763597526 63.52771467529237,116.01651747711003 64.03642201982439,114.24602267565206 63.78206834662706,112.18044402892701 62.00159264262766,108.93453172780573 58.44064123183489,105.39353230968118 55.64275083690882,100.96727690496482 53.0992141161114,98.3115203899797 51.064384737983346,97.72135194251314 45.72295762319118,99.19677283382043 44.70554293412715,98.90168871684 40.381530506536365,95.36067694006488 37.074932768940926,94.47542331484146 27.155139554291964,97.4262676727958 25.37466384936124,98.3115203899797 24.10289548896253,99.78694097860716 23.085480798967183,101.8525285308715 20.79629775043577,112.47552678361535 16.980992668308318,136.6722095955629 17.235346339643,142.57380865514278 18.761468372307718,144.93444488733076 20.79629775043577,146.40984154795296 22.576773455366492,146.70492078945972 24.86595650576055,146.40984154795296 46.4860186399892,136.3771293249447 48.01214067265391,134.90172751573846 49.53826270624995,133.13124434556812 51.827445754781365,127.22962590004317 53.0992141161114,125.16405658237636 54.62533614970744,123.68864901829511 59.45805591996759,121.32799534010701 62.51029998622835,118.96733972383663 64.03642201982439,116.90176446945406 64.54512936342508,114.54110521893017 64.03642201982439,112.18044402892701 63.273361003026366,111.000112707261 58.69499490316957,106.27878257376142 54.37098247651011,100.08202500548214 52.33615309931338,98.60660456912592 44.70554293412715,98.01643618079834 40.635884179733694,95.36067694006488 38.09234745800495,94.7705078877043 35.54881073627621,94.7705078877043 25.629017521627247,97.4262676727958 23.848541815765202,98.60660456912592 22.8311271276325,101.55744468537159 16.72663899511099,139.32793067279272 16.472285322844982,141.9836492955219 16.980992668308318,144.04920652811415 18.507114700973034,145.5246036425233 19.778883062303066,146.40984154795296 23.594188144430518,146.40984154795296 35.54881073627621,140.80333021027036 48.01214067265391,136.3771293249447 49.792616376653314,134.90172751573846 50.81003106664866,132.8361637108028 53.0992141161114,126.34438208886422 54.37098247651011,123.98373059136793 61.74723897036165,118.96733972383663 63.52771467529237,117.196846739389 64.29077569022775,115.1312702128198 63.78206834662706,112.18044402892701 62.76465365849435,109.81978090084158 57.67758021503687,104.5082817741204 54.37098247651011,99.19677283382043 52.844860444776714,97.4262676727958 50.81003106664866,97.13118337350897 45.72295762319118,98.3115203899797 44.19683558959514,98.3115203899797 39.872823162935674,95.36067694006488 38.601054802536964,94.7705078877043 34.53139604721218,95.36067694006488 25.37466384936124,98.3115203899797 23.848541815765202,100.08202500548214 22.576773455366492,103.32794730202295 20.287590405903757,113.65585749968886 19.27017571683973,122.21324069681577 16.980992668308318,133.13124434556812 16.472285322844982,141.6885695690289 17.489700011909008,143.75412701396272 20.287590405903757,145.5246036425233 23.085480798967183,146.11476227641106 26.900785882025957,145.5246036425233 48.01214067265391,135.49188833055086 50.30132372304797,132.2460023504682 53.86227513290942,124.57389364833944 55.38839716557413,122.80340411653742 62.76465365849435,118.37717551691458 64.29077569022775,116.01651747711003 64.54512936342508,114.24602267565206 64.03642201982439,111.8853612432722 63.01900732982904,110.40994686447084 58.18628755956888,105.98369918228127 54.62533614970744,100.67219296912663 51.31873841024935,98.60660456912592 44.19683558959514,98.90168871684 39.61846949066967,95.65576142189093 38.346701129339635,95.36067694006488 24.86595650576055,98.90168871684 23.848541815765202,100.67219296912663 23.085480798967183,105.39353230968118 21.050651422701776,111.2951955825556 19.778883062303066,116.90176446945406 19.015822045505047,124.57389364833944 17.489700011909008,135.1968079379294 17.489700011909008,141.9836492955219 18.507114700973034,144.04920652811415 19.524529389105737,144.93444488733076 21.813712438568473,145.5246036425233 25.88337119296193,145.22952428087592 31.224798309616745,143.45904747000895" stroke="#4dd2ff" stroke-linecap="round" stroke-linejoin="round" stroke-width="0.5"><title>2024-10-29 5.0km</title><desc>12806221775</desc></polyline><polyline fill="none" points="107.46265494916588,97.98917319718748 100.37945703044534,95.34784729522653 97.34380078036338,95.05436648824252 85.70711848791689,97.40221209661104 83.6833476535976,98.28265370312147 82.67146223690361,99.45657542184927 81.91254817415029,102.3913776120171 79.129863278009,123.52186444820836 76.34717838279903,139.66310335043818 76.60014973487705,142.89134019589983 77.86500650830567,144.9456708356738 80.14174869470298,146.41304896073416 82.41849088203162,146.70652449596673 85.70711848791689,146.41304896073416 92.79031640570611,143.478291957872 107.46265494916588,135.55443300283514 109.48642578348517,133.20661872485653 111.25722526200116,128.51098438398913 112.77505338843912,126.16316432319582 120.870136721991,119.11969256936572 122.38796484749764,116.77186479535885 123.14687891025096,114.13055624603294 121.88202213961631,110.90228692581877 117.83448047097772,106.20661595510319 114.54585286788642,100.63049665954895 111.76316797081381,98.28265370312147 104.42699869908392,97.69569266145118 99.62054296862334,94.17392388847657 96.3319153636694,93.88044296111912 84.94820442516357,96.81525087519549 83.17740494478494,97.98917319718748 82.16551952902228,100.04353610076942 79.129863278009,114.42403509397991 78.37094921525568,122.64143061474897 76.60014973487705,133.79357247566804 76.34717838279903,138.48919813917018 76.34717838279903,141.7174363101367 76.85312109068036,143.18481609178707 78.37094921525568,144.9456708356738 80.39472004864365,146.11957339639775 84.18929036241025,146.70652449596673 92.28437369782478,144.0652435987722 106.4507695324719,137.02181594772264 108.72751172073185,134.38052610470913 112.77505338843912,125.28273130231537 114.54585286788642,123.81534233293496 120.61716536805034,119.41317090531811 122.64093620143831,116.4783861883916 123.14687891025096,114.13055624603294 122.64093620143831,112.6631615520455 121.62905078474432,110.60880771651864 117.83448047097772,105.91313626314513 114.79882422182709,100.92397689307109 112.52208203356713,98.57613417785615 110.2453398462385,97.98917319718748 104.93294140696526,97.40221209661104 100.37945703044534,94.4674047860317 97.09082942642272,93.29348101699725 86.4660325506702,95.34784729522653 84.44226171635091,96.22828953363933 82.92443359084427,98.28265370312147 82.16551952902228,100.92397689307109 79.129863278009,116.77186479535885 75.84123567398638,138.19572176155634 75.84123567398638,141.13048418611288 76.60014973487705,143.18481609178707 77.35906379763037,144.65219512116164 79.38283463194966,145.82609780109487 82.92443359084427,147.0 86.4660325506702,146.70652449596673 95.06705859396607,142.89134019589983 104.93294140696526,137.31529244687408 107.20968359522521,135.26095632347278 108.72751172073185,133.20661872485653 111.25722526200116,127.33707459457219 112.77505338843912,124.69577580480836 120.61716536805034,117.945778923342 122.13499349262565,115.8914288834203 122.89390755537897,113.83707736711949 122.13499349262565,110.60880771651864 117.83448047097772,105.61965654045343 115.3047669287771,100.92397689307109 113.53396745026112,99.16309503652155 111.51019661687315,97.98917319718748 104.67997005302459,97.40221209661104 100.126485677436,93.88044296111912 97.09082942642272,93.0 86.97197525855154,95.34784729522653 84.69523307029158,96.22828953363933 82.92443359084427,98.57613417785615 81.91254817415029,101.80441741459072 80.14174869470298,112.6631615520455 79.38283463194966,120.29360573319718 76.60014973487705,138.48919813917018 76.60014973487705,141.42396026360802 77.35906379763037,144.0652435987722 78.87689192313701,145.82609780109487 81.15363411139697,146.70652449596673 85.96008984092623,146.70652449596673 93.29625911358744,144.3587193749845 106.95671224035323,136.4348628600128 109.48642578348517,133.50009561516345 112.52208203356713,126.75011951872148 114.03991015721112,124.40229801135138 121.37607942987233,119.11969256936572 122.89390755537897,117.06534337275662 123.39985026419163,114.71751391189173 123.39985026419163,112.6631615520455 122.89390755537897,111.19576610578224 121.37607942987233,109.43489057617262 118.34042317979038,106.79357524751686 113.7869388051331,100.04353610076942 111.25722526200116,98.28265370312147 105.18591276183724,98.28265370312147 103.6680846363306,97.69569266145118 99.873514322564,95.05436648824252 97.34380078036338,94.76088565192185 87.2249466124922,97.1087315005716 84.69523307029158,97.98917319718748 83.6833476535976,99.16309503652155 82.41849088203162,101.80441741459072 79.63580598589033,115.8914288834203 76.34717838279903,134.38052610470913 76.34717838279903,139.0761508049909 76.60014973487705,142.0109123259317 77.61203515250236,144.0652435987722 79.38283463194966,145.82609780109487 81.40660546626896,146.41304896073416 85.4541471330449,145.82609780109487 97.84974348917603,141.7174363101367 105.94482682459056,137.60876891482621 107.71562630310655,135.8479096519295 110.2453398462385,129.09793909918517 111.76316797081381,125.86968667944893 114.03991015721112,123.81534233293496 121.12310807593167,118.23925738036633 122.38796484749764,116.4783861883916 122.64093620143831,115.01099269953556 122.64093620143831,112.6631615520455 121.37607942987233,110.31532847695053 117.07556640915573,105.61965654045343 114.03991015721112,100.63049665954895 112.01613932475448,98.86961462209001 104.67997005302459,97.69569266145118 100.126485677436,94.76088565192185 96.3319153636694,93.88044296111912 92.28437369782478,94.17392388847657 84.94820442516357,96.22828953363933 83.43037629965693,97.98917319718748 82.67146223690361,99.75005577597767 79.63580598589033,115.8914288834203 78.37094921525568,128.8044617571868 76.60014973487705,136.72833941830322 76.60014973487705,142.0109123259317 77.35906379763037,144.0652435987722 79.129863278009,145.5326221762225 82.92443359084427,146.11957339639775 86.71900390461087,144.9456708356738 97.84974348917603,140.25005577527918 105.43888411484659,135.8479096519295 107.96859765797853,133.20661872485653 110.75128255411983,127.04359707189724 112.52208203356713,124.1088201876264 119.60527995135635,119.70664921193384 122.64093620143831,117.06534337275662 123.90579297300428,115.01099269953556 124.15876432601362,112.36968252342194 123.39985026419163,110.31532847695053 122.38796484749764,108.84793182485737 118.59339453373104,105.32617678912356 115.05179557483643,99.75005577597767 112.52208203356713,98.28265370312147 110.49831120017916,97.69569266145118 105.43888411484659,97.40221209661104 103.92105599027127,97.1087315005716 99.62054296862334,94.17392388847657 97.59677213430405,93.586962004425 91.27248828019947,94.17392388847657 85.70711848791689,96.81525087519549 84.69523307029158,97.69569266145118 83.6833476535976,99.75005577597767 80.64769140351564,115.8914288834203 79.129863278009,127.92402955098078 77.10609244555235,139.36962709296495 77.35906379763037,143.18481609178707 78.62392056919634,144.9456708356738 80.14174869470298,145.82609780109487 82.41849088203162,146.11957339639775 85.4541471330449,145.5326221762225 97.84974348917603,140.5435319421813 105.69185546971858,136.4348628600128 108.47454036585987,133.50009561516345 111.25722526200116,127.33707459457219 113.02802474237978,124.40229801135138 121.88202213961631,117.945778923342 123.39985026419163,115.59795018541627 123.90579297300428,113.83707736711949 123.6528216181323,112.36968252342194 122.38796484749764,110.31532847695053 117.07556640915573,105.61965654045343 113.53396745026112,100.33701639575884 111.00425390806049,98.57613417785615 103.6680846363306,97.98917319718748 99.11460025981069,95.05436648824252 95.5730013018474,93.88044296111912 89.50168880075216,94.76088565192185 85.4541471330449,96.81525087519549 83.93631900753826,98.28265370312147 82.92443359084427,100.92397689307109 79.88877734076232,112.95664055109955 78.87689192313701,125.57620900659822 76.85312109068036,135.26095632347278 76.34717838279903,141.13048418611288 76.60014973487705,143.478291957872 77.35906379763037,144.65219512116164 78.11797786038369,145.2391465215478 80.39472004864365,146.11957339639775 84.44226171635091,146.11957339639775 88.23683202918619,144.65219512116164" stroke="#4dd2ff" stroke-linecap="round" stroke-linejoin="round" stroke-width="0.5"><title>2024-10-22 5.0km</title><desc>12806222360</desc></polyline><polyline fill="none" points="177.67758384440094,119.85258580814116 181.49288970977068,118.3771755171474 183.2733657816425,116.9017644696869 184.29078067839146,115.13127021305263 184.29078067839146,112.7706095080357 183.78207322955132,110.40994686470367 182.2559508830309,107.75419907341711 175.64275404904038,100.08202500664629 173.60792425461113,98.9016887161415 172.0818019080907,98.3115203906782 166.9947274196893,98.3115203906782 164.95989762526006,98.01643618242815 159.6184694133699,94.47542331530713 156.3118709968403,93.0 153.0052725803107,93.0 146.64642946980894,95.06559242960066 144.86595339979976,96.54101468389854 143.5941847767681,99.78694097907282 141.0506475334987,111.2951955825556 139.52452518697828,122.50832242146134 136.9809879437089,133.72140552382916 136.47228049393743,140.50825036293827 136.7266342183575,141.98364929459058 137.7440491169691,143.75412701419555 141.0506475334987,145.5246036425233 146.1377220209688,145.22952428087592 148.42690554074943,144.34428601129912 157.32928589358926,139.62301064049825 165.21425135061145,136.08204902336 168.2664960436523,133.13124434510246 173.09921680670232,124.57389364764094 180.7298285383731,118.96733972430229 182.2559508830309,117.49192897905596 183.2733657816425,115.42635266459547 183.2733657816425,112.7706095080357 182.2559508830309,110.40994686470367 175.13404660113156,100.67219296866097 173.09921680670232,99.1967728342861 170.04697211366147,98.3115203906782 165.46860507316887,98.3115203906782 163.43377527873963,97.42626767302863 159.6184694133699,94.18033871357329 157.32928589358926,93.29508472396992 153.7683337526396,93.29508472396992 146.3920757463202,94.47542331530713 144.86595339979976,95.65576142142527 144.3572459500283,96.83609904395416 143.5941847767681,102.44269613083452 141.0506475334987,110.40994686470367 137.23534166719764,133.42632494936697 136.9809879437089,138.44269058620557 136.9809879437089,141.09841002663597 137.7440491169691,143.16396789555438 139.77887891139835,144.9344448875636 143.08547732792795,145.5246036425233 146.64642946980894,144.9344448875636 166.23166624642909,135.19680793816224 168.77520349156111,132.54108304646797 171.3187407348305,126.34438208886422 173.09921680670232,123.39356741425581 182.00159716047347,116.9017644696869 183.52771950606257,114.24602267588489 183.0190120562911,111.59027842874639 181.49288970977068,108.93453172803856 178.1862912941724,105.68861576216295 175.64275404904038,102.14761234656908 172.3361556334421,99.78694097907282 170.30132583808154,99.1967728342861 163.9424827285111,99.1967728342861 159.6184694133699,97.13118337420747 156.3118709968403,96.24593029404059 150.97044278495014,96.83609904395416 144.3572459500283,96.24593029404059 142.57676988001913,98.60660456842743 141.55935498140752,109.22961481614038 139.2701714625582,123.39356741425581 136.9809879437089,134.01648606616072 136.7266342183575,138.1476104974281 136.9809879437089,140.80333021027036 138.507110289298,143.16396789555438 140.2875863602385,144.34428601129912 143.84853850118816,144.9344448875636 147.66384436748922,144.04920652718283 165.21425135061145,136.08204902336 168.0121423183009,133.42632494936697 171.06438701041043,126.63946338929236 173.09921680670232,123.09848578064702 175.3884003246203,121.32799534010701 181.49288970977068,117.49192897905596 182.76465833280236,116.01651747804135 183.2733657816425,115.13127021305263 183.0190120562911,112.7706095080357 181.74724343512207,109.5246978730429 178.1862912941724,105.39353230991401 175.13404660113156,100.08202500664629 173.09921680670232,98.60660456842743 171.06438701041043,98.01643618242815 164.7055439017713,98.60660456842743 158.34670079126954,95.36067694076337 156.0575172714889,94.77050788723864 148.42690554074943,95.06559242960066 144.86595339979976,96.24593029404059 143.5941847767681,98.3115203906782 143.33983105327934,99.49185692169704 139.2701714625582,124.27881213510409 136.7266342183575,135.49188833055086 136.47228049393743,141.09841002663597 136.47228049393743,141.98364929459058 137.7440491169691,144.04920652718283 141.30500125791878,145.22952428087592 146.3920757463202,144.9344448875636 161.3989454843104,138.1476104974281 165.72295879852027,135.49188833055086 167.2490811450407,134.01648606616072 170.30132583808154,126.93454466038384 171.5730944601819,124.86897513084114 180.7298285383731,118.08209336851723 182.2559508830309,116.31159983854741 182.76465833280236,114.24602267588489 182.51030460838228,111.59027842874639 181.23853598628193,108.93453172803856 176.91452267114073,105.09844882902689 174.62533915322274,101.55744468583725 173.09921680670232,100.08202500664629 170.81003328692168,99.49185692169704 164.7055439017713,99.1967728342861 162.1620066575706,97.42626767302863 158.85540824010968,94.18033871357329 156.56622472126037,93.0 150.2073816107586,93.29508472396992 145.62901457305998,94.77050788723864 144.10289222653955,96.24593029404059 142.83112360350788,98.60660456842743 142.068062431179,105.09844882902689 138.76146401371807,121.32799534010701 137.48969539161772,131.6558408695273 135.70921932160854,140.2131704860367 135.70921932160854,142.57380865653977 136.7266342183575,144.63936546538025 137.99840284045786,145.81968297460116 141.30500125791878,147.0 145.62901457305998,146.40984154795296 165.97731252387166,136.08204902336 168.0121423183009,134.31156658008695 172.59050935693085,124.57389364764094 174.37098542787135,122.80340411607176 181.23853598628193,118.08209336851723 183.0190120562911,116.31159983854741 183.52771950606257,115.13127021305263 183.78207322955132,112.7706095080357 182.2559508830309,109.22961481614038 178.94935246743262,105.68861576216295 175.64275404904038,100.67219296866097 173.35357053019106,98.9016887161415 171.82744818367064,98.3115203906782 164.7055439017713,98.3115203906782 162.67071410547942,97.13118337420747 159.10976196452975,94.18033871357329 156.3118709968403,93.29508472396992 153.0052725803107,93.88525408017449 146.1377220209688,95.95084587298334 144.61159967444837,97.42626767302863 144.10289222653955,98.9016887161415 141.81370870675892,108.3443654612638 140.2875863602385,115.13127021305263 139.52452518697828,121.32799534010701 136.21792677044868,135.49188833055086 136.21792677044868,140.80333021027036 137.23534166719764,143.16396789555438 138.507110289298,144.63936546538025 142.32241615466774,145.5246036425233 149.18996671400964,144.04920652718283 165.21425135061145,135.49188833055086 167.2490811450407,133.72140552382916 168.52084976714104,131.95092162513174 172.3361556334421,123.39356741425581 174.11663170251995,121.91815894236788 180.47547481395304,118.08209336851723 182.51030460838228,116.01651747804135 183.0190120562911,114.54110521846451 183.2733657816425,112.47552678338252 182.00159716047347,109.5246978730429 177.67758384440094,105.39353230991401 174.8796928767115,100.37710900278762 172.59050935693085,98.60660456842743 170.30132583808154,98.01643618242815 166.48601997178048,98.60660456842743 164.45119017735124,98.3115203906782 159.36411568988115,94.77050788723864 156.0575172714889,93.59016941674054 147.40949064213783,93.88525408017449 145.37466084770858,94.47542331530713 144.3572459500283,95.95084587298334 143.5941847767681,98.01643618242815 143.08547732792795,103.62303096544929 140.03323263581842,117.49192897905596 137.48969539161772,135.78696869220585 137.23534166719764,142.27872899081558 138.25275656487793,144.34428601129912 139.2701714625582,145.22952428087592 142.57676988001913,145.81968297460116 146.1377220209688,145.22952428087592 165.21425135061145,135.49188833055086 167.7577885929495,132.54108304646797 172.84486308228225,123.68864901852794 175.3884003246203,121.62307715625502 181.23853598628193,117.49192897905596 182.76465833280236,115.72143508656882 183.52771950606257,113.95094010350294 183.52771950606257,111.2951955825556 182.51030460838228,109.5246978730429 177.67758384440094,105.68861576216295 174.8796928767115,100.37710900278762 172.84486308228225,98.9016887161415 170.30132583808154,98.60660456842743 165.97731252387166,98.9016887161415 163.9424827285111,98.60660456842743 157.32928589358926,95.06559242960066 155.29445609916002,94.77050788723864 144.3572459500283,96.24593029404059 143.08547732792795,97.72135194274597 142.57676988001913,98.9016887161415 136.21792677044868,133.42632494936697 135.9635730450973,137.8525303772185 136.21792677044868,141.3934898134321 137.48969539161772,144.34428601129912 138.507110289298,144.9344448875636 142.83112360350788,146.40984154795296 146.900783194229,146.11476227687672 165.97731252387166,136.6722095955629 168.0121423183009,134.31156658008695 170.30132583808154,128.70503164781258 172.84486308228225,124.86897513084114 174.8796928767115,123.09848578064702 180.47547481395304,119.26242178212851 182.2559508830309,117.49192897905596 183.2733657816425,115.72143508656882 183.52771950606257,113.0656922024209 182.76465833280236,110.70502980076708 178.44064501766115,105.98369918344542 174.11663170251995,100.08202500664629 171.82744818367064,98.60660456842743 170.5556795625016,98.01643618242815 165.72295879852027,97.72135194274597 163.9424827285111,97.42626767302863 159.36411568988115,94.18033871357329 155.5488098235801,93.0" stroke="#4dd2ff" stroke-linecap="round" stroke-linejoin="round" stroke-width="0.5"><title>2024-10-15 5.0km</title><desc>12674607652</desc></polyline><polyline fill="none" points="57.32852709107101,179.11969256959856 62.13497986085713,176.1849075513892 63.39983585290611,173.83707736758515 63.652807051315904,172.3696825238876 62.13497986085713,169.4348905759398 56.06367109809071,161.21745709772222 54.545843908563256,160.0435361021664 46.19779436197132,157.98917319765314 41.89728398900479,155.05436648870818 38.608658409677446,153.8804429618176 36.33191762492061,153.8804429618176 32.53734964784235,154.46740478579886 27.477925679646432,155.93480881792493 25.45415609329939,157.10873150173575 24.189300100319088,158.57613417785615 23.4303865050897,160.33701639599167 20.141760925762355,175.59795018611476 19.129876132123172,183.52186444890685 16.853135347366333,193.20661872508936 16.600164148956537,201.7174363094382 17.106106544844806,203.18481609178707 18.62393373530358,204.65219512023032 21.91255931556225,205.53262217598967 25.45415609329939,205.23914652084932 39.620543202385306,199.66310334973969 44.17402477469295,197.3152924461756 47.462650353088975,194.38052610540763 51.004247130826116,187.04359707189724 53.02801671810448,184.1088201876264 56.06367109809071,181.76099651120603 61.37606626562774,179.11969256959856 62.893893456086516,177.65230043721385 63.90577824879438,174.4240350939799 63.652807051315904,172.3696825238876 63.14686465449631,171.19576610648073 58.0874406863004,165.91313626314513 54.79881510697305,160.92397689330392 53.02801671810448,159.45657542184927 45.18590956740081,157.98917319765314 39.873514401726425,155.05436648870818 36.07894642557949,154.1739238894079 30.513580061495304,154.76088565238751 25.20118489395827,156.52177021978423 23.177415307611227,158.86961462255567 21.15364572033286,167.0870548498351 19.888789728283882,173.5435984591022 19.888789728283882,181.76099651120603 17.106106544844806,192.91314180428162 16.853135347366333,201.1304841863457 17.61204894259572,203.47829195763916 18.62393373530358,204.35871937521733 22.92444410827011,205.53262217598967 29.5016952669248,205.23914652084932 34.561119235120714,203.47829195763916 44.67996717058122,197.90224535227753 46.70373675785959,196.14138627098873 52.0161319244653,186.16316432319582 53.786930312402546,184.40229801111855 61.62903746496886,179.11969256959856 63.14686465449631,177.35882191965356 63.90577824879438,175.30447145784274 63.652807051315904,172.66316155227832 62.6409222567454,170.60880771651864 58.34041188471019,166.50009561656043 54.545843908563256,161.21745709772222 52.52207432221621,159.750055776909 45.43888076581061,158.28265370312147 38.608658409677446,154.1739238894079 35.5730040287599,153.29348101792857 31.525464853271842,153.8804429618176 24.948213695548475,156.52177021978423 23.683357703499496,157.98917319765314 22.671472909860313,161.21745709772222 17.106106544844806,194.6740028746426 16.600164148956537,202.3043883126229 17.106106544844806,204.35871937521733 18.117991339415312,205.23914652084932 20.394732125103474,206.11957339546643 22.671472909860313,206.11957339546643 28.74278167169541,204.94567083544098 44.93293836992234,197.02181594725698 48.22156394831836,193.50009561469778 53.28098791651428,184.69577580480836 61.12309506628662,179.4131709053181 62.6409222567454,177.65230043721385 63.652807051315904,175.0109927004669 63.14686465449631,172.66316155227832 61.62903746496886,169.72836990677752 54.039901511743665,160.92397689330392 52.0161319244653,160.0435361021664 45.18590956740081,158.28265370312147 40.1264855992049,154.76088565238751 37.343802416697145,154.1739238894079 34.81409043353051,154.46740478579886 24.69524249807,158.86961462255567 23.4303865050897,160.63049665954895 20.900674520991743,170.9022869267501 19.382847330532968,181.76099651120603 16.600164148956537,195.2609563237056 16.094221752136946,201.7174363094382 17.359077744185925,204.65219512023032 19.382847330532968,206.11957339546643 22.16553051304072,206.70652449480258 25.20118489395827,206.11957339546643 35.82597522623837,201.42396026314236 44.17402477469295,196.7283394190017 46.70373675785959,194.38052610540763 48.22156394831836,192.3261878732592 51.25721832923591,185.86968668038025 52.52207432221621,184.1088201876264 60.617152670398355,178.23925738036633 62.6409222567454,176.1849075513892 63.39983585290611,174.13055624626577 63.14686465449631,171.7827243753709 61.88200866151601,170.02184920734726 57.32852709107101,166.7935752477497 53.786930312402546,161.80441741505638 51.25721832923591,159.750055776909 45.18590956740081,158.57613417785615 39.873514401726425,155.64132807124406 36.58488882146776,154.76088565238751 30.766551258973777,155.05436648870818 25.20118489395827,156.81525087542832 23.683357703499496,157.98917319765314 22.418501711450517,160.63049665954895 20.394732125103474,172.66316155227832 19.888789728283882,179.4131709053181 17.106106544844806,194.08704930520616 16.853135347366333,199.66310334973969 17.106106544844806,203.18481609178707 18.117991339415312,204.94567083544098 20.141760925762355,206.41304896119982 22.418501711450517,207.0 25.960098489187658,206.11957339546643 34.05517683830112,203.18481609178707 45.9448231626302,197.02181594725698 48.98047754354775,193.50009561469778 51.7631607260555,187.04359707189724 53.28098791651428,184.69577580480836 61.88200866151601,178.82621420337819 62.893893456086516,177.94577892427333 63.652807051315904,175.8914288841188 63.14686465449631,173.25011951988563 61.88200866151601,171.19576610648073 57.8344694878906,166.7935752477497 54.79881510697305,161.80441741505638 51.7631607260555,159.750055776909 44.42699597310275,158.28265370312147 38.35568721126765,154.1739238894079 36.33191762492061,153.58696200489067 32.790320847183466,154.1739238894079 24.442271298728883,157.10873150173575 23.4303865050897,157.98917319765314 22.92444410827011,160.0435361021664 22.418501711450517,165.03269700706005 18.370962536893785,184.40229801111855 16.853135347366333,194.38052610540763 16.600164148956537,202.01091232639737 17.61204894259572,204.06524359900504 19.888789728283882,205.82609780016355 22.92444410827011,206.70652449480258 27.983868076466024,205.53262217598967 45.43888076581061,197.02181594725698 47.96859275083989,194.38052610540763 50.75127593241632,188.80446175695397 52.269103122875094,186.4566419357434 54.545843908563256,184.1088201876264 62.387951059266925,178.82621420337819 63.652807051315904,177.06534337298945 63.90577824879438,175.8914288841188 63.652807051315904,173.5435984591022 62.387951059266925,171.4892452552449 58.846354281529784,167.67401396250352 55.55772870220244,162.68485766509548 52.77504552062601,160.33701639599167 50.498304734006524,159.750055776909 44.93293836992234,159.45657542184927 42.65619758423418,158.57613417785615 39.11460080649704,155.64132807124406 36.07894642557949,154.46740478579886 30.766551258973777,155.05436648870818 26.719012084417045,156.22828953457065 23.683357703499496,157.40221209684387 22.671472909860313,159.1630950376857 22.16553051304072,160.33701639599167 21.91255931556225,167.0870548498351 18.117991339415312,187.92402955051512 16.853135347366333,200.83700807928108 16.853135347366333,203.18481609178707 17.865020140074193,204.94567083544098 18.8769049346447,205.82609780016355 23.177415307611227,207.0 25.960098489187658,206.41304896119982 33.296263243071735,202.3043883126229 40.379456798546016,199.66310334973969 45.43888076581061,196.7283394190017 47.71562155243009,194.38052610540763 52.52207432221621,184.9892535689287 54.545843908563256,183.2283865341451 61.37606626562774,179.4131709053181 62.893893456086516,177.65230043721385 63.652807051315904,175.8914288841188 63.652807051315904,174.4240350939799 62.893893456086516,172.3696825238876 60.87012386880815,169.4348905759398 58.846354281529784,164.44573735259473 56.56961349584162,161.51093727117404 54.29287271108478,160.0435361021664 51.7631607260555,159.1630950376857 45.9448231626302,159.45657542184927 44.17402477469295,158.86961462255567 39.36757200490683,155.05436648870818 36.837860020808876,154.1739238894079 32.28437844850123,154.46740478579886 26.466040886938572,156.22828953457065 24.948213695548475,157.695692661684 24.189300100319088,160.33701639599167 21.15364572033286,172.66316155227832 16.094221752136946,199.07615080545656 16.34719294961542,203.18481609178707 17.865020140074193,205.53262217598967 20.64770332351327,206.70652449480258 23.936328902840614,206.11957339546643 46.45076555944979,197.02181594725698 48.727506345137954,194.38052610540763 52.77504552062601,185.86968668038025 54.29287271108478,184.1088201876264 60.87012386880815,180.00012748804875 62.387951059266925,178.53273580688983 62.893893456086516,177.35882191965356 62.893893456086516,174.13055624626577 61.88200866151601,171.4892452552449 56.82258469518274,163.56529764435254 54.79881510697305,161.51093727117404 52.52207432221621,160.0435361021664 45.43888076581061,158.57613417785615 38.10271601192653,153.8804429618176 33.54923444148153,153.0 28.74278167169541,153.29348101792857" stroke="#4dd2ff" stroke-linecap="round" stroke-linejoin="round" stroke-width="0.5"><title>2024-10-10 5.0km</title><desc>12674607817</desc></polyline><polyline fill="none" points="113.7312963809818,179.7301385595929 114.66223172936589,178.65013822633773 120.94604532793164,177.30013718735427 122.10971451271325,175.68013502540998 122.57518218737096,173.2501299122814 122.10971451271325,171.63012525695376 120.94604532793164,169.74011856364086 117.68777160998434,167.8501105129253 115.59316707681865,165.15009665605612 114.42949789203703,161.6400744980201 112.33489335980266,158.94005426578224 109.77482115291059,158.13004765636288 106.05107976216823,158.67005208972842 104.18920906540006,158.40004988666624 102.56007220689207,157.3200407961849 99.06906465161592,154.080010864418 96.7417262820527,153.0 84.87230059597641,154.35001351172104 83.01042990013957,156.78003608458675 83.70863141026348,162.45008002663963 82.54496222548187,167.31010796315968 79.98489001952112,186.75012991158292 77.65755164902657,194.85009665368125 77.42481781262904,199.98006268916652 77.65755164902657,201.87004765472375 79.05395467020571,202.9500384540297 83.01042990013957,203.760031261947 89.29424349870533,202.14004539581947 91.15611419454217,201.06005426496267 95.34532325994223,201.06005426496267 97.43992779310793,199.98006268916652 98.83633081428707,199.71006472688168 102.09460453223437,204.8400212849956 104.65467674005777,205.3800161294639 108.84388580452651,204.03002880956046 112.33489335980266,202.14004539581947 113.26582870818675,201.06005426496267 114.1967640556395,197.55008002533577 116.05863475147635,195.39009354962036 118.38597312103957,194.31009964668192 121.1787791652605,194.58009816450067 121.87698067631572,194.85009665368125 122.57518218737096,195.93009033496492 122.10971451271325,198.09007636620663 120.01510997954756,203.2200360840652 118.61870695836842,205.92001086473465 117.22230393625796,207.0 115.36043324135244,207.0 110.93849033676088,205.11001872108318 102.32733836956322,204.57002382096834 100.46546767372638,203.4900336866267 99.5345323253423,201.60004988545552 98.83633081428707,199.4400667361915 99.06906465161592,197.82007820997387 99.5345323253423,197.0100835727062 106.05107976216823,195.1200951160863 108.84388580452651,192.42010924988426 110.70575650036335,187.29012846993282 111.17122417502105,182.43013745057397 111.63669184781611,181.6201380745042 120.01510997954756,178.9201383513864 114.89496556576341,181.350138226524 114.66223172936589,182.70013718679547 116.2913685888052,185.94013186590746 116.75683626253158,186.48013059073128 116.98957009892911,186.2101312421728" stroke="#4dd2ff" stroke-linecap="round" stroke-linejoin="round" stroke-width="0.5"><title>2024-10-08 1.1km</title><desc>12674761520</desc></polyline><polyline fill="none" points="138.31069865077734,188.0577121740207 137.33589859120548,195.4084662012756 137.33589859120548,201.34559936309233 138.31069865077734,204.17280113277957 139.77289874199778,205.869120801799 141.23509883321822,206.15184064465575 147.8149992423132,207.0 150.00829937774688,206.43456045887433 162.68070016708225,199.36655639787205 165.36140033323318,197.3875120105222 167.55470046959817,194.56030327640474 171.21020069811493,187.20954698580317 179.9834012426436,179.57604853552766 181.68930135015398,176.46609865734354 181.9330013645813,174.20431472244672 180.71450128871948,171.37708219117485 176.5716010304168,167.70167556172237 173.40350083447993,163.46081566461362 171.69760072883219,161.76446987781674 164.38660027366132,160.06812304537743 157.31929983384907,155.54452638607472 154.1511996369809,155.54452638607472 149.52089934796095,156.39270132547244 145.8653991203755,157.80632564495318 144.1594990156591,159.5026738694869 142.69729892443866,164.02626402839087 140.26029877271503,174.48703781538643 139.28549871221185,184.09960572631098 137.33589859120548,191.16764896502718 136.36109852977097,197.67023272369988 136.6047985451296,200.4974382664077 137.09219857491553,202.7592006099876 139.28549871221185,205.0209610974416 143.4283989695832,205.5864009289071 147.32759921159595,205.0209610974416 154.1511996369809,202.19376019900665 160.48740002978593,198.51839469186962 166.09250037837774,193.99486118135974 171.45390071254224,184.66504985303618 179.7397012282163,179.2933259641286 181.9330013645813,176.46609865734354 182.1767013799399,173.35614526714198 181.44560133386403,171.09435877855867 176.32790101598948,166.57078022812493 174.3783008940518,163.7435398614034 171.45390071254224,161.48174547799863 169.50430059153587,160.91629659291357 164.1429002583027,160.35084759048186 158.53779990877956,156.39270132547244 155.85709974262863,154.9790762818884 152.44529953040183,155.54452638607472 145.37799909058958,157.80632564495318 143.1846989542246,159.78539847233333 141.96619887836277,162.61264290264808 139.77289874199778,175.9006528481841 139.0417986959219,183.81688362010755 136.36109852977097,195.69118711794727 136.11739851441234,198.23567406553775 136.6047985451296,201.9110399489291 138.06699863635004,204.73824113770388 141.23509883321822,206.15184064465575 143.91579899936914,206.15184064465575 154.88229968212545,202.7592006099876 156.5881997877732,201.9110399489291 164.6303002871573,196.25662886491045 166.09250037837774,194.27758224331774 169.26060057710856,188.340433845995 170.96650068182498,186.07865966134705 172.67240078933537,184.38232780410908 179.7397012282163,179.57604853552766 181.68930135015398,176.7488215181511 181.68930135015398,174.20431472244672 180.47080127429217,171.37708219117485 177.05900106113404,167.70167556172237 172.91610080283135,161.48174547799863 170.72280066739768,160.6335721067153 164.38660027366132,160.06812304537743 159.51259997021407,156.39270132547244 154.88229968212545,153.28272527013905 153.1763995764777,153.0 150.9830994391814,153.0 147.8149992423132,154.6963511852082 145.8653991203755,156.39270132547244 144.4031990300864,158.93722457787953 140.9913988178596,169.68074127915315 139.28549871221185,178.44515807693824 138.55439866613597,185.7959377579391 136.8484985595569,192.29853419936262 136.11739851441234,197.67023272369988 136.6047985451296,202.7592006099876 138.06699863635004,205.30368102854118 141.23509883321822,207.0 144.89059906080365,207.0 151.9578995006159,205.0209610974416 158.53779990877956,201.34559936309233 165.84880036395043,196.25662886491045 167.06730043981224,194.56030327640474 170.23540063668042,187.7749904738739 171.45390071254224,185.7959377579391 173.64720084983855,183.81688362010755 180.71450128871948,179.2933259641286 181.9330013645813,177.3142671538517 182.42040139529854,175.9006528481841 182.1767013799399,173.9215915997047 180.9582013040781,171.65980557422154 176.5716010304168,167.70167556172237 173.89090086426586,162.8953671855852 171.9413007432595,161.19902104977518 169.9917006213218,160.6335721067153 164.6303002871573,160.06812304537743 162.92440018244088,159.2199492380023 159.26889995485544,156.10997637500986 156.83189980313182,155.26180134830065 152.68899954669178,155.26180134830065 145.37799909058958,156.9581511411816 143.91579899936914,158.37177516845986 143.67209898494184,159.2199492380023 142.69729892443866,164.5917122764513 139.52919872663915,175.9006528481841 136.8484985595569,193.42941897036508 136.36109852977097,201.06287902663462 137.33589859120548,203.04192077321932 139.77289874199778,205.30368102854118 142.4535989081487,206.15184064465575 146.10909913573414,205.30368102854118 155.3696997128427,201.34559936309233 165.11770031880587,196.25662886491045 167.3110004561022,193.99486118135974 170.96650068182498,186.07865966134705 172.18500075861812,184.09960572631098 174.62200090941042,182.12055036984384 179.9834012426436,179.01060336455703 181.20190131943673,177.5969899285119 181.68930135015398,175.9006528481841 181.68930135015398,173.6388684483245 180.9582013040781,171.94252892956138 176.32790101598948,168.5498467583675 175.10940093919635,167.13622795254923 172.91610080283135,163.1780914394185 170.96650068182498,161.76446987781674 164.1429002583027,159.2199492380023 160.0,156.10997637500986 154.3948996514082,153.56545051117428 150.73939942475408,153.56545051117428 147.08389919623733,154.6963511852082 144.89059906080365,156.9581511411816 143.91579899936914,159.5026738694869 139.77289874199778,175.9006528481841 138.31069865077734,186.07865966134705 136.36109852977097,195.1257452548016 136.11739851441234,199.36655639787205 136.6047985451296,202.7592006099876 137.33589859120548,203.890081086196 138.7980986814946,205.5864009289071 142.20989889465272,206.43456045887433 145.8653991203755,206.15184064465575 152.68899954669178,203.32464090711437 164.38660027366132,197.1047912670765 166.579900409095,194.84302428085357 170.72280066739768,186.64410338154994 180.22710125893354,179.2933259641286 181.20190131943673,177.5969899285119 181.9330013645813,174.7697608799208 181.9330013645813,172.50797555199824 181.20190131943673,171.37708219117485 177.05900106113404,167.70167556172237 172.91610080283135,162.61264290264808 169.9917006213218,160.6335721067153 164.6303002871573,159.5026738694869 162.92440018244088,158.65449988795444 160.24370001628995,156.39270132547244 157.56299984827638,155.26180134830065 152.68899954669178,155.82725139474496 144.89059906080365,158.08905042125843 143.4283989695832,159.5026738694869 142.4535989081487,162.8953671855852 141.72249886300415,167.98439932335168 139.77289874199778,175.05248391558416 138.55439866613597,185.51321582589298 137.33589859120548,192.58125543617643 136.8484985595569,198.80111528909765 137.09219857491553,201.9110399489291 138.06699863635004,203.890081086196 140.0165987573564,205.0209610974416 143.4283989695832,205.5864009289071 149.27719933353364,203.890081086196 164.38660027366132,195.4084662012756 166.82360042445362,192.86397664272226 170.72280066739768,186.07865966134705 179.9834012426436,179.85877107805572 181.44560133386403,178.44515807693824 181.9330013645813,177.3142671538517 181.9330013645813,175.3352069214452 180.47080127429217,172.22525225556456 176.32790101598948,167.98439932335168 172.91610080283135,162.3299185896758 170.72280066739768,160.35084759048186 169.0169005608186,159.78539847233333 163.89920024294406,159.5026738694869 159.26889995485544,156.67542624752969 157.31929983384907,156.10997637500986 146.5964991664514,157.24087600409985 144.64689904544502,158.08905042125843 143.1846989542246,160.06812304537743 141.72249886300415,163.46081566461362 140.74769880343229,170.52891186601482 139.28549871221185,177.8797126740683 138.7980986814946,183.81688362010755 136.6047985451296,193.71214009076357 136.6047985451296,198.80111528909765 136.8484985595569,201.34559936309233 138.7980986814946,203.890081086196 140.26029877271503,204.73824113770388 142.4535989081487,205.30368102854118 146.10909913573414,205.30368102854118 150.9830994391814,203.890081086196 156.10079975798726,201.62831967067905 162.43700015172362,197.3875120105222 165.36140033323318,195.1257452548016 171.45390071254224,186.64410338154994 173.1598008191213,185.2304938635789 175.84050098620355,183.25143931922503 183.88260148558766,179.01060336455703" stroke="#4dd2ff" stroke-linecap="round" stroke-linejoin="round" stroke-width="0.5"><title>2024-10-06 4.9km</title><desc>12674761628</desc></polyline><polyline fill="none" points="55.84569015726447,239.71289620106108 62.03541287500411,235.6916163037531 62.77817960176617,233.96820886433125 62.77817960176617,232.5320351868868 61.78782396763563,230.23415577108972 57.82640142738819,226.50009769480675 53.12221216224134,220.46814719913527 50.398734166286886,219.31920277397148 46.18972271773964,219.31920277397148 44.20901144761592,219.03196659334935 39.99999999906868,215.87236666679382 38.51446654740721,215.0106569759082 33.56268837302923,215.0106569759082 26.63019892759621,216.73407609132119 25.144665475934744,217.30854889308102 23.659132023341954,219.60643892525695 21.678420754149556,229.3724505037535 20.44047620985657,240.0001302587334 17.716998213902116,254.3617955315858 16.974231488071382,262.1170641302597 17.964587124064565,264.70214888686314 21.183242936618626,266.13830605335534 26.877787836827338,265.8510746790562 46.18972271773964,258.0958164285403 47.67525616940111,256.65965513372794 49.4083785302937,254.3617955315858 53.86497888807207,245.457571744686 62.03541287500411,239.13842799863778 63.5209463275969,236.5533196250908 63.2733574192971,233.96820886433125 62.28300178423524,231.95756550994702 57.82640142738819,227.93627446726896 54.60774561483413,222.7660346357152 52.37944543547928,220.46814719913527 50.64632307458669,219.8936750460416 44.456600355915725,218.74473038408905 40.99035563413054,215.58513013226911 38.51446654740721,214.43618370150216 25.392254384234548,216.1596031705849 23.906720931641757,217.59578525088727 23.163954205811024,219.8936750460416 22.421187479048967,225.35115574556403 20.935654028318822,231.3830957156606 19.945298393256962,240.0001302587334 18.459764940664172,250.05330368876457 16.974231488071382,255.22349310317077 17.46940930467099,263.2659909836948 17.964587124064565,264.41491736471653 19.450120575726032,265.56384327588603 22.668776389211416,266.42553739855066 25.8874322026968,266.13830605335534 33.56268837302923,263.2659909836948 40.74276672489941,259.53197698504664 46.18972271773964,257.5213519993704 48.41802289709449,254.9362606087234 50.89391198288649,249.19160452322103 53.12221216224134,245.457571744686 60.79746833164245,240.28736428637058 62.530590693466365,238.5639596770052 63.2733574192971,236.5533196250908 63.2733574192971,234.54267812846228 62.03541287500411,231.67033062758856 57.33122360985726,227.6490391723346 54.36015670467168,222.4787988087628 52.13185652624816,220.46814719913527 44.456600355915725,219.8936750460416 42.971066903322935,219.03196659334935 39.752411090768874,215.29789356840774 37.02893309574574,214.43618370150216 30.591621468774974,215.87236666679382 24.40189875010401,216.44683964527212 23.41154311504215,217.88302157865837 22.421187479048967,221.04261923511513 18.95494275726378,246.03203865047544 16.974231488071382,258.0958164285403 16.974231488071382,260.39367296523415 17.46940930467099,263.2659909836948 18.95494275726378,264.9893803799059 19.697709484025836,265.56384327588603 23.41154311504215,266.42553739855066 25.8874322026968,266.13830605335534 32.57233273796737,263.8404542335775 46.932489443570375,256.94688745215535 48.913200713694096,254.64902808400802 50.89391198288649,249.76607066346332 53.12221216224134,246.6065054384526 61.78782396763563,239.13842799863778 62.530590693466365,237.98949123872444 63.025768510997295,235.97885077330284 62.77817960176617,233.68097418779507 61.540235058404505,231.09586077346466 57.33122360985726,226.78733310778625 54.36015670467168,221.90432706847787 52.37944543547928,220.18091113725677 50.398734166286886,219.60643892525695 44.95177817437798,219.03196659334935 43.21865581255406,218.1702578761615 39.752411090768874,215.29789356840774 37.02893309574574,214.1489470200613 31.334388194605708,214.1489470200613 26.38261002022773,215.58513013226911 24.89707656763494,217.02131250710227 23.906720931641757,219.31920277397148 20.44047620985657,233.96820886433125 17.46940930467099,253.78733033523895 17.46940930467099,259.53197698504664 17.716998213902116,262.9787593150977 18.7073538498953,264.9893803799059 20.44047620985657,265.8510746790562 23.41154311504215,266.42553739855066 26.877787836827338,265.56384327588603 35.2958107329905,262.4042958870996 46.43731162510812,256.94688745215535 48.66561180446297,254.0745629479643 52.62703434377909,245.74480521283112 54.85533452313393,243.44693664601073 61.540235058404505,238.2767254728824 62.28300178423524,237.12778835953213 62.77817960176617,235.11714727571234 62.28300178423524,232.24480036343448 61.540235058404505,230.52139080152847 57.578812518157065,226.50009769480675 54.112567795440555,222.19156295317225 52.13185652624816,220.46814719913527 45.19936708267778,219.31920277397148 43.46624472178519,218.4574941447936 39.752411090768874,215.0106569759082 37.02893309574574,214.1489470200613 31.581977102905512,214.72342035314068 26.38261002022773,216.1596031705849 24.89707656763494,217.59578525088727 24.40189875010401,218.74473038408905 23.41154311504215,225.0639201842714 19.697709484025836,238.2767254728824 17.716998213902116,252.06393404095434 17.22182039730251,261.8298323433846 17.716998213902116,263.8404542335775 19.202531666494906,265.56384327588603 22.668776389211416,266.42553739855066 25.8874322026968,265.8510746790562 35.54339964315295,262.1170641302597 46.932489443570375,256.94688745215535 48.913200713694096,254.3617955315858 50.89391198288649,248.6171382679604 52.62703434377909,245.74480521283112 54.36015670467168,244.0214039646089 59.064345970749855,240.57459828536958 61.78782396763563,238.2767254728824 62.530590693466365,237.12778835953213 63.2733574192971,235.11714727571234 63.025768510997295,233.10650474671274 61.540235058404505,229.94692071108148 57.08363470155746,225.92562677920796 54.112567795440555,221.617091154214 52.62703434377909,220.18091113725677 50.64632307458669,219.31920277397148 43.96142253931612,218.4574941447936 39.752411090768874,215.0106569759082 36.78134418558329,213.8617103099823 30.591621468774974,213.0 27.37296565528959,213.8617103099823 25.639843293465674,215.29789356840774 24.649487658403814,217.30854889308102 23.163954205811024,225.92562677920796 20.935654028318822,233.3937394823879 17.46940930467099,255.79795800405554 17.22182039730251,262.1170641302597 17.46940930467099,264.1276858141646 18.459764940664172,265.56384327588603 20.192887301556766,266.13830605335534 22.668776389211416,266.42553739855066 28.115732380189,265.2766118417494 33.06751055456698,263.55322262318805 45.942133808508515,257.8085842290893 47.67525616940111,256.3724227868952 48.66561180446297,254.64902808400802 50.15114525705576,249.76607066346332 52.62703434377909,245.457571744686 54.36015670467168,244.0214039646089 60.549879423342645,240.0001302587334 62.03541287500411,238.5639596770052 62.77817960176617,236.26608521444723 62.77817960176617,234.25544351153076 61.540235058404505,231.09586077346466 57.33122360985726,227.3618038475979 54.36015670467168,222.4787988087628 51.88426761794835,220.18091113725677 50.15114525705576,219.60643892525695 46.68490053527057,219.8936750460416 44.456600355915725,219.31920277397148 39.752411090768874,215.29789356840774 36.78134418558329,214.1489470200613 31.086799285374582,214.1489470200613 25.392254384234548,215.87236666679382 23.906720931641757,217.30854889308102 23.41154311504215,219.03196659334935 20.192887301556766,233.68097418779507 19.202531666494906,244.30863757943735 17.22182039730251,254.9362606087234 17.22182039730251,262.6915276159998 18.459764940664172,264.9893803799059 19.945298393256962,266.13830605335534 25.639843293465674,267.0 27.868143471889198,266.712768713478 40.74276672489941,260.10644100164063 45.942133808508515,257.8085842290893 48.17043398786336,255.51072556874715 50.15114525705576,249.76607066346332 52.874623253941536,245.74480521283112 55.598101248033345,243.44693664601073 61.29264614917338,239.13842799863778 62.77817960176617,236.5533196250908 62.530590693466365,233.3937394823879 61.045057240873575,230.52139080152847 56.58845688402653,225.63839127728716 54.36015670467168,221.617091154214 51.63667870964855,219.31920277397148 49.90355634782463,219.03196659334935 46.18972271773964,219.31920277397148 44.456600355915725,219.03196659334935 39.00964436493814,215.0106569759082 36.03857745975256,214.1489470200613 30.839210376143456,214.1489470200613 27.620554563589394,215.29789356840774 25.8874322026968,216.44683964527212 24.40189875010401,218.4574941447936 20.935654028318822,233.3937394823879 19.945298393256962,242.87246921029873 17.964587124064565,249.76607066346332 16.72664257977158,256.65965513372794 16.479053671471775,260.39367296523415 17.22182039730251,263.55322262318805 18.95494275726378,265.2766118417494 20.192887301556766,265.8510746790562 22.668776389211416,266.712768713478 24.89707656763494,266.42553739855066 27.37296565528959,265.8510746790562 36.03857745975256,261.5426005262416 43.21865581255406,258.67028073989786 46.18972271773964,256.65965513372794 48.41802289709449,254.0745629479643 52.37944543547928,245.74480521283112 54.85533452313393,243.44693664601073 60.30229051504284,240.0001302587334 62.03541287500411,237.98949123872444 62.530590693466365,236.5533196250908 62.530590693466365,234.25544351153076 61.540235058404505,231.3830957156606 56.58845688402653,225.0639201842714" stroke="#4dd2ff" stroke-linecap="round" stroke-linejoin="round" stroke-width="0.5"><title>2024-09-26 5.0km</title><desc>12674761733</desc></polyline><polyline fill="none" points="115.39045551419258,239.41948365210555 122.14724086318165,235.0646406961605 123.14824609924108,233.32270163670182 123.39849740918726,231.58076150389388 122.89799479022622,229.83882029820234 122.14724086318165,228.38720180746168 118.89397384319454,225.1936385051813 116.89196337014437,221.7097471540328 114.63970158714801,219.38715053512715 111.63668587617576,217.93552668043412 106.38140838500112,218.22585151041858 104.87990052998066,217.93552668043412 101.3763822009787,214.7419515766669 98.62361779995263,213.5806506446097 86.61155495792627,215.90325203165412 85.11004710383713,217.06455200887285 84.1090418677777,218.8065010823775 80.10502092074603,237.9678700780496 78.8537643738091,247.25818407605402 76.85175390075892,255.96782573405653 76.60150259174407,261.48391824634746 77.1020052107051,264.387120509753 79.60451830178499,266.4193603217136 82.35728270281106,267.0 84.35929317679256,266.7096801754087 93.11808899696916,263.5161601442378 105.88090576510876,257.4194300696254 107.38241362012923,256.25814666133374 108.88392147608101,254.51622065366246 111.3864345671609,248.12914944859222 112.88794242311269,245.80657452484593 120.39548169821501,241.16141895740293 122.39749217126518,238.83883831254207 123.14824609924108,236.80657868273556 123.14824609924108,233.61302488739602 121.89698955323547,231.0001145543065 120.39548169821501,228.96784929255955 117.14221467915922,226.64525863481686 114.1391989691183,221.41942268051207 112.63769111409783,219.96779986890033 109.88492671307176,219.09682582342066 104.87990052998066,219.38715053512715 103.1281413640827,218.51617631106637 98.62361779995263,213.5806506446097 96.8718586359173,213.29032533685677 93.61859161686152,213.5806506446097 85.86080103181303,216.7742270596791 84.6095444848761,217.93552668043412 84.1090418677777,219.09682582342066 83.60853924881667,224.03234186465852 80.60552353970706,236.22593280673027 77.852759138681,251.90332963131368 76.85175390075892,261.7742386064492 78.10301044676453,264.6774405722972 79.60451830178499,266.129040438449 83.85879055783153,266.7096801754087 92.3673350699246,264.387120509753 107.6326649300754,256.25814666133374 109.63467540312558,253.935578412842 111.88693718612194,247.54850589553826 113.13819373305887,245.51625252561644 120.64573300816119,240.00012887269258 122.39749217126518,238.25819285283796 123.14824609924108,236.22593280673027 123.14824609924108,234.19367129984312 122.14724086318165,231.0001145543065 118.14321991521865,226.93558257096447 114.38945027720183,221.12909817765467 112.1371884951368,219.38715053512715 109.88492671307176,218.8065010823775 105.63065445702523,219.09682582342066 103.87889529205859,218.8065010823775 99.62462303601205,214.7419515766669 96.8718586359173,214.16130117001012 93.36834030691534,214.45162638789043 86.86180626787245,216.19357707048766 85.11004710383713,217.93552668043412 84.1090418677777,220.83877364522777 80.8557748477906,236.22593280673027 80.35527222976089,244.93560843728483 77.60250782873482,257.70975084765814 77.35225651878864,261.19359785551205 77.60250782873482,263.5161601442378 78.60351306665689,265.2580806077458 80.35527222976089,266.4193603217136 83.35828793980181,266.7096801754087 87.8628115048632,265.5484005815815 97.12210994493216,260.9032774346415 104.87990052998066,256.5484675578773 108.13316754810512,253.35493605257943 113.3884450411424,244.3549642295111 120.64573300816119,239.70980627741665 122.89799479022622,237.3872244404629 123.39849740918726,235.93560982355848 123.14824609924108,233.90334810852073 121.89698955323547,230.70979103446007 117.14221467915922,225.48396259103902 114.1391989691183,221.12909817765467 111.63668587617576,219.38715053512715 109.38442409411073,219.09682582342066 104.37939791101962,219.38715053512715 99.87487434595823,215.32260186271742 96.8718586359173,214.45162638789043 86.11105234082788,218.22585151041858 85.11004710383713,219.09682582342066 83.85879055783153,222.0000715968199 80.60552353970706,235.0646406961605 79.85476961173117,246.67754034535028 78.10301044676453,254.22589954780415 77.1020052107051,261.7742386064492 77.852759138681,264.09680041787215 79.10401568375528,265.83872052421793 80.8557748477906,266.7096801754087 84.1090418677777,266.4193603217136 95.37035077996552,262.0645589369815 104.87990052998066,256.8387884243857 107.6326649300754,253.64525724737905 112.63769111409783,244.3549642295111 120.64573300816119,238.83883831254207 122.14724086318165,237.0969015765004 122.89799479022622,235.0646406961605 122.39749217126518,231.87108493340202 121.1462356261909,229.83882029820234 117.14221467915922,225.77428664662875 114.38945027720183,221.7097471540328 111.88693718612194,219.67747521726415 104.62964922003448,219.09682582342066 99.3743717269972,215.03227673470974 97.3723612530157,214.45162638789043 87.8628115048632,215.61292696231976 86.61155495792627,216.19357707048766 85.11004710383713,217.35487692942843 84.6095444848761,218.8065010823775 80.8557748477906,235.0646406961605 78.10301044676453,254.80654172901995 77.852759138681,262.6451995091047 78.60351306665689,264.6774405722972 80.10502092074603,266.129040438449 83.35828793980181,267.0 89.36431935988367,265.5484005815815 104.87990052998066,257.4194300696254 107.6326649300754,254.51622065366246 111.13618325907737,247.25818407605402 112.63769111409783,245.22593049658462 120.64573300816119,240.29045143863186 122.89799479022622,237.9678700780496 123.39849740918726,235.93560982355848 122.64774348121136,232.1614083335735 121.39648693427444,230.41946748574264 117.8929686062038,226.3549346679356 115.14020420610905,221.41942268051207 112.63769111409783,219.38715053512715 110.63568064104766,218.8065010823775 104.12914660200477,219.38715053512715 99.3743717269972,215.90325203165412 97.3723612530157,215.32260186271742 92.61758637987077,215.90325203165412 87.61256019584835,217.06455200887285 85.86080103181303,217.93552668043412 84.6095444848761,219.09682582342066 83.60853924881667,221.41942268051207 80.60552353970706,235.0646406961605 79.35426699277014,244.06464208150283 77.60250782873482,253.064614827279 76.85175390075892,261.48391824634746 77.60250782873482,263.5161601442378 80.10502092074603,265.5484005815815 82.10703139472753,266.4193603217136 84.85979579482228,266.129040438449 104.37939791101962,256.25814666133374 106.13115707505494,255.09686277457513 108.13316754810512,252.48397228936665 112.38743980415165,244.93560843728483 114.63970158714801,243.1936754572671 120.89598431717604,240.00012887269258 122.64774348121136,237.9678700780496 123.39849740918726,235.64528681105003 122.89799479022622,232.7420550440438 121.64673824328929,230.41946748574264 117.64271729718894,226.64525863481686 113.88894765917212,220.83877364522777 112.1371884951368,219.67747521726415 110.1351780211553,219.38715053512715 105.38040314707905,219.67747521726415 104.12914660200477,219.38715053512715 99.62462303601205,215.90325203165412 95.87085339892656,214.45162638789043 92.61758637987077,214.45162638789043 86.36130365077406,216.7742270596791 84.6095444848761,218.22585151041858 83.60853924881667,220.25812449026853 79.85476961173117,237.9678700780496 77.1020052107051,255.09686277457513 76.85175390075892,260.9032774346415 77.1020052107051,262.9355197495315 77.60250782873482,263.80648029525764 80.60552353970706,265.83872052421793 82.35728270281106,266.129040438449 85.36029841285199,265.5484005815815 93.61859161686152,262.0645589369815 103.87889529205859,256.5484675578773 107.13216231111437,253.935578412842 110.88593195006251,246.67754034535028 112.38743980415165,244.6452863488812 120.64573300816119,239.41948365210555 122.64774348121136,236.80657868273556 122.64774348121136,234.19367129984312 121.39648693427444,230.70979103446007 120.14523038826883,228.67752556526102 116.89196337014437,225.48396259103902 114.1391989691183,221.7097471540328 112.38743980415165,219.96779986890033 110.1351780211553,219.38715053512715 104.12914660200477,219.38715053512715 102.37738743796945,218.51617631106637 99.87487434595823,215.61292696231976 97.62261256296188,214.7419515766669 87.61256019584835,216.48390207975172 85.36029841285199,217.35487692942843 84.6095444848761,218.51617631106637 83.85879055783153,220.54844908230007 83.60853924881667,225.48396259103902 81.35627746675164,234.19367129984312 78.60351306665689,250.16140094166622 78.10301044676453,262.0645589369815 78.35326175671071,263.225839961553 79.60451830178499,264.9677606052719 81.85678008478135,266.129040438449 84.1090418677777,266.129040438449 94.36934554390609,261.7742386064492 105.38040314707905,255.96782573405653 106.88191100303084,254.22589954780415 109.88492671307176,248.70979288127273 112.38743980415165,245.22593049658462 118.89397384319454,240.00012887269258 121.1462356261909,236.80657868273556 121.64673824328929,234.19367129984312 120.89598431717604,231.29043804388493 119.39447646122426,228.96784929255955 115.64070682320744,225.1936385051813 112.38743980415165,219.96779986890033 110.38542933110148,218.51617631106637 103.62864398304373,217.6452018204145 98.37336649093777,213.87097592302598 96.62160732597113,213.0" stroke="#4dd2ff" stroke-linecap="round" stroke-linejoin="round" stroke-width="0.5"><title>2024-09-24 5.0km</title><desc>12674761803</desc></polyline><polyline fill="none" points="177.64271729625762,238.83883831254207 180.8959843153134,237.3872244404629 183.14824609830976,235.35496376873925 184.1492513353005,233.90334810852073 184.1492513353005,231.87108493340202 182.64774348028004,229.54849666007794 177.8929686062038,226.64525863481686 174.38945027813315,221.7097471540328 171.88693718519062,219.67747521726415 169.63467540219426,218.8065010823775 164.62964921910316,218.51617631106637 158.6236177990213,214.16130117001012 156.1211047070101,213.5806506446097 153.1180889979005,213.87097592302598 146.36130364891142,215.61292696231976 144.35929317586124,216.7742270596791 143.10803662985563,219.09682582342066 142.35728270281106,225.48396259103902 139.85476961079985,233.61302488739602 138.8537643738091,243.48399769491516 136.8517538998276,255.677504776977 136.3512512817979,259.4516748874448 136.8517538998276,262.35487923794426 137.85275913774967,264.9677606052719 139.10401568282396,266.129040438449 142.1070313937962,266.7096801754087 147.1120575768873,265.5484005815815 166.13115707412362,256.8387884243857 168.38341885711998,254.51622065366246 171.3864345671609,246.96786222606897 172.63769111409783,244.93560843728483 180.8959843153134,238.83883831254207 182.64774348028004,236.22593280673027 182.89799479022622,234.48399446182884 181.64673824422061,231.29043804388493 177.1422146782279,226.93558257096447 174.639701587148,221.41942268051207 172.1371884951368,219.38715053512715 164.37939791101962,217.93552668043412 162.62763874512166,217.06455200887285 159.12412041705102,213.87097592302598 156.37135601695627,213.0 154.1190942339599,213.0 144.6095444848761,215.61292696231976 143.10803662985563,216.7742270596791 141.85678008385003,219.96779986890033 136.3512512817979,256.8387884243857 136.3512512817979,260.3226365058217 136.60150259174407,262.6451995091047 137.85275913774967,264.6774405722972 139.604518301785,265.83872052421793 141.6065287757665,266.129040438449 143.85879055783153,265.83872052421793 151.36632983293384,263.225839961553 157.87286387197673,260.032315995777 165.8809057660401,257.4194300696254 168.13316754903644,254.80654172901995 170.63568064011633,248.41947118006647 173.13819373119622,244.6452863488812 180.8959843153134,239.41948365210555 182.39749217126518,237.6775472741574 183.3984974073246,235.64528681105003 183.14824609830976,233.90334810852073 181.39648693427444,230.70979103446007 177.64271729625762,226.93558257096447 174.13919896818697,222.58072039368562 171.88693718519062,220.54844908230007 164.37939791101962,219.09682582342066 158.6236177990213,215.03227673470974 154.61959685198963,213.5806506446097 151.116078523919,213.5806506446097 144.6095444848761,215.32260186271742 143.3582879388705,216.7742270596791 142.85778532084078,218.22585151041858 141.6065287757665,225.48396259103902 139.10401568282396,235.64528681105003 136.10099997278303,256.5484675578773 136.10099997278303,261.7742386064492 137.35225651971996,264.6774405722972 138.8537643738091,265.83872052421793 142.1070313937962,266.4193603217136 148.86381674092263,265.2580806077458 165.38040314614773,256.8387884243857 167.88291623909026,254.51622065366246 170.38542933110148,248.41947118006647 172.38743980415165,245.22593049658462 174.38945027813315,243.77431990252808 181.14623562432826,239.70980627741665 182.89799479022622,237.9678700780496 183.3984974073246,236.80657868273556 182.89799479022622,234.19367129984312 181.64673824422061,231.87108493340202 177.64271729625762,226.64525863481686 174.13919896818697,221.7097471540328 171.88693718519062,219.67747521726415 163.8788952920586,218.22585151041858 161.8768848190084,217.06455200887285 159.8748743450269,215.03227673470974 156.62160732597113,213.87097592302598 153.36834030598402,214.45162638789043 144.6095444848761,217.35487692942843 143.60853924881667,218.51617631106637 142.35728270281106,221.41942268051207 137.6025078278035,249.29043619451113 136.60150259174407,261.48391824634746 137.10200520977378,264.09680041787215 139.10401568282396,265.83872052421793 142.1070313937962,266.7096801754087 144.6095444848761,266.4193603217136 150.86582721490413,264.387120509753 165.1301518380642,258.0000715951901 166.8819110011682,256.25814666133374 168.13316754903644,254.80654172901995 170.63568064011633,248.12914944859222 172.63769111409783,244.93560843728483 174.639701587148,243.1936754572671 181.14623562432826,239.1291609974578 182.89799479022622,236.5162557598669 182.89799479022622,234.77431759354658 181.39648693427444,231.87108493340202 176.6417120601982,226.93558257096447 172.63769111409783,221.12909817765467 170.38542933110148,219.09682582342066 164.62964921910316,218.22585151041858 159.12412041705102,214.16130117001012 156.1211047070101,213.0 153.86884292494506,213.0 144.85979579389095,215.90325203165412 143.3582879388705,217.06455200887285 142.35728270281106,218.8065010823775 141.85678008385003,225.77428664662875 140.10502092074603,234.48399446182884 136.3512512817979,257.4194300696254 135.8507486646995,262.9355197495315 136.3512512817979,264.9677606052719 137.6025078278035,266.4193603217136 140.10502092074603,267.0 143.60853924881667,266.4193603217136 150.11507328785956,264.09680041787215 157.12210994400084,260.9032774346415 165.38040314614773,257.70975084765814 168.63367016706616,254.22589954780415 172.38743980415165,245.51625252561644 174.13919896818697,243.77431990252808 180.395481698215,239.70980627741665 182.39749217126518,237.0969015765004 183.14824609830976,235.0646406961605 182.89799479022622,232.7420550440438 181.64673824422061,231.0001145543065 176.89196337014437,227.51623035548255 172.63769111409783,221.7097471540328 169.88492671214044,219.38715053512715 164.12914660107344,218.8065010823775 159.62462303601205,215.32260186271742 156.62160732597113,214.16130117001012 152.8678376879543,214.7419515766669 144.35929317586124,217.35487692942843 143.3582879388705,218.51617631106637 142.6075340108946,223.74201763025485 139.85476961079985,233.03237835527398 138.35326175484806,245.22593049658462 136.60150259174407,255.3871837912593 136.10099997278303,260.032315995777 136.3512512817979,262.9355197495315 137.35225651971996,264.9677606052719 138.35326175484806,265.83872052421793 141.3562774658203,266.4193603217136 144.85979579389095,266.129040438449 165.1301518380642,257.1291092624888 166.63165969215333,255.96782573405653 168.13316754903644,253.935578412842 172.1371884951368,245.51625252561644 183.3984974073246,236.80657868273556 184.1492513353005,235.93560982355848 183.6487487172708,233.61302488739602 182.39749217126518,231.87108493340202 176.89196337014437,226.93558257096447 173.38844504021108,222.29039600980468 170.63568064011633,220.25812449026853 168.38341885711998,219.67747521726415 163.1281413640827,219.38715053512715 161.8768848190084,218.8065010823775 159.12412041705102,216.48390207975172 157.87286387197673,216.19357707048766 155.87085339892656,216.19357707048766 150.86582721490413,217.35487692942843 145.360298412852,217.06455200887285 143.85879055783153,217.6452018204145 142.85778532084078,219.38715053512715 139.85476961079985,233.61302488739602 137.10200520977378,254.22589954780415 136.8517538998276,261.7742386064492 137.35225651971996,263.80648029525764 137.85275913774967,264.9677606052719 139.35426699277014,266.4193603217136 142.6075340108946,266.7096801754087 151.36632983293384,263.80648029525764 167.38241362012923,256.5484675578773 169.38442409411073,253.64525724737905 173.13819373119622,244.6452863488812 175.1402042042464,242.9033531891182 179.89497907925397,239.41948365210555 181.64673824422061,237.3872244404629 182.39749217126518,235.35496376873925 182.39749217126518,233.61302488739602 180.8959843153134,230.1291439065244 173.38844504021108,221.7097471540328 171.13618325721473,220.25812449026853 168.8839214751497,219.38715053512715 163.62864398304373,219.67747521726415 161.62663350906223,218.51617631106637 158.37336649000645,215.61292696231976 155.12009947095066,214.45162638789043 151.6165811419487,214.45162638789043 144.10904186591506,216.19357707048766 143.3582879388705,216.7742270596791 142.85778532084078,218.8065010823775 140.60552353784442,234.48399446182884 138.8537643738091,241.74206381989643 136.3512512817979,261.19359785551205 136.8517538998276,264.387120509753 138.35326175484806,266.129040438449 141.6065287757665,266.7096801754087 146.6115549588576,265.83872052421793 152.11708376090974,263.80648029525764 158.6236177990213,260.3226365058217 162.37738743703812,259.1613542889245 164.62964921910316,258.0000715951901 167.63266492914408,254.51622065366246 170.63568064011633,247.8388276877813 171.88693718519062,245.51625252561644 173.63869635015726,243.77431990252808 181.39648693427444,238.54851559712552 182.39749217126518,236.80657868273556 182.89799479022622,235.0646406961605 182.39749217126518,232.45173170417547 181.39648693427444,230.70979103446007 176.6417120601982,226.0646106719505 173.8889476582408,221.41942268051207 171.88693718519062,219.67747521726415 168.63367016706616,218.51617631106637 163.8788952920586,218.22585151041858 159.8748743450269,215.03227673470974 157.3723612530157,214.16130117001012 151.36632983293384,214.7419515766669 145.11004710383713,214.7419515766669 143.85879055783153,215.03227673470974 142.6075340108946,217.06455200887285 142.6075340108946,222.29039600980468 141.85678008385003,227.80655420245603 138.10301044769585,241.16141895740293 135.8507486646995,258.0000715951901 135.8507486646995,261.48391824634746" stroke="#4dd2ff" stroke-linecap="round" stroke-linejoin="round" stroke-width="0.5"><title>2024-09-19 5.3km</title><desc>12674762022</desc></polyline></svg>