<?xml version="1.0" encoding="utf-8" ?>
<svg baseProfile="full" height="200mm" version="1.1" viewBox="0,0,200,200" width="200mm" xmlns="http://www.w3.org/2000/svg" xmlns:ev="http://www.w3.org/2001/xml-events" xmlns:xlink="http://www.w3.org/1999/xlink"><defs /><rect fill="#1a1a1a" height="200" width="200" x="0" y="0" /><text alignment-baseline="middle" fill="#e1ed5e" style="dominant-baseline: central; font-size:9.0px; font-family:Arial;" text-anchor="middle" x="100.0" y="100.0">2024</text><line stroke="#e1ed5e" stroke-width="0.3" x1="100.0" x2="100.0" y1="15.0" y2="10.0" /><path d="M 100.0 14.0 a86.0,86.0 0 0,1 42.35913384403234,11.155469271406648" fill="none" id="id1" stroke="none" /><text fill="#e1ed5e" style="font-size:6.75px; font-family:Arial;" text-anchor="middle"><textPath startOffset="22.145653131862478" xlink:href="#id1">January</textPath></text><line stroke="#e1ed5e" stroke-width="0.3" x1="143.13028292997686" x2="145.6673583964461" y1="26.7553504044142" y2="22.446841604673864" /><path d="M 143.63769802327073 25.89364864446614 a86.0,86.0 0 0,1 29.32050498858742,28.57503671076993" fill="none" id="id2" stroke="none" /><text fill="#e1ed5e" style="font-size:6.75px; font-family:Arial;" text-anchor="middle"><textPath startOffset="20.669276256404974" xlink:href="#id2">February</textPath></text><line stroke="#e1ed5e" stroke-width="0.3" x1="172.87174338648825" x2="177.1583165268699" y1="56.24261187166439" y2="53.66864786411523" /><path d="M 173.72905801456457 55.72781907015455 a86.0,86.0 0 0,1 12.242430191666344,42.057860355516425" fill="none" id="id3" stroke="none" /><text fill="#e1ed5e" style="font-size:6.75px; font-family:Arial;" text-anchor="middle"><textPath startOffset="22.145653131862474" xlink:href="#id3">March</textPath></text><line stroke="#e1ed5e" stroke-width="0.3" x1="184.99686870605535" x2="189.99668451229388" y1="99.2704041080226" y2="99.22748670261217" /><path d="M 185.99683186730306 99.26182062694052 a86.0,86.0 0 0,1 -10.086455211305974,41.156179273409016" fill="none" id="id4" stroke="none" /><text fill="#e1ed5e" style="font-size:6.75px; font-family:Arial;" text-anchor="middle"><textPath startOffset="21.40746469413373" xlink:href="#id4">April</textPath></text><line stroke="#e1ed5e" stroke-width="0.3" x1="174.33088141563837" x2="178.70328620479359" y1="141.23008692659167" y2="143.65538615756765" /><path d="M 175.20536237346943 141.71514677278685 a86.0,86.0 0 0,1 -30.301960400862466,31.631185727798858" fill="none" id="id5" stroke="none" /><text fill="#e1ed5e" style="font-size:6.75px; font-family:Arial;" text-anchor="middle"><textPath startOffset="22.145653131862474" xlink:href="#id5">May</textPath></text><line stroke="#e1ed5e" stroke-width="0.3" x1="143.1302829299769" x2="145.66735839644613" y1="173.24464959558577" y2="177.55315839532614" /><path d="M 143.63769802327073 174.10635135553383 a86.0,86.0 0 0,1 -40.68552437913181,11.842963189579606" fill="none" id="id6" stroke="none" /><text fill="#e1ed5e" style="font-size:6.75px; font-family:Arial;" text-anchor="middle"><textPath startOffset="21.407464694133747" xlink:href="#id6">June</textPath></text><line stroke="#e1ed5e" stroke-width="0.3" x1="101.45913802915013" x2="101.54496967792366" y1="184.9874750549273" y2="189.98673829345242" /><path d="M 101.47630435890484 185.9873277026323 a86.0,86.0 0 0,1 -42.54439059252881,-10.42667462771756" fill="none" id="id7" stroke="none" /><text fill="#e1ed5e" style="font-size:6.75px; font-family:Arial;" text-anchor="middle"><textPath startOffset="22.145653131862474" xlink:href="#id7">July</textPath></text><line stroke="#e1ed5e" stroke-width="0.3" x1="58.13341422392154" x2="55.67067388415222" y1="173.97424548756322" y2="178.32567169271397" /><path d="M 57.64086615596768 174.84453072859336 a86.0,86.0 0 0,1 -31.369924170532247,-30.572349798747897" fill="none" id="id8" stroke="none" /><text fill="#e1ed5e" style="font-size:6.75px; font-family:Arial;" text-anchor="middle"><textPath startOffset="22.145653131862474" xlink:href="#id8">August</textPath></text><line stroke="#e1ed5e" stroke-width="0.3" x1="26.387840678322732" x2="22.057713659400548" y1="142.50000000000003" y2="145.00000000000006" /><path d="M 25.521815274538298 143.00000000000003 a86.0,86.0 0 0,1 -11.493303480769221,-40.785679425670985" fill="none" id="id9" stroke="none" /><text fill="#e1ed5e" style="font-size:6.75px; font-family:Arial;" text-anchor="middle"><textPath startOffset="21.40746469413373" xlink:href="#id9">September</textPath></text><path d="M 79.48165901384964 104.47187691870673 l -32.975552043246054 7.186868088572078 a54.74963859775931,54.74963859775931 0 0,0 -0.1922554134160655,-0.920011750438983 l 33.09406516748649 -6.619739886847686" fill="#84ff25" stroke="none" /><path d="M 79.17382384314188 102.69636545807758 l -31.651347048654728 4.09790055749214 a52.9155222262378,52.9155222262378 0 0,0 -0.10889992738564376,-0.9018476187462339 l 31.717029062300032 -3.5539592618225067" fill="#9aff23" stroke="none" /><path d="M 79.0935383218832 101.97986365728391 l -31.586991416880053 2.991320928049694 a52.72831586555836,52.72831586555836 0 0,0 -0.07760196307874508,-0.9018524412493578 l 31.63368700265654 -2.448647439424674" fill="#9cff22" stroke="none" /><line stroke="#e1ed5e" stroke-width="0.3" x1="15.003131293944662" x2="10.003315487706104" y1="100.72959589197737" y2="100.7725132973878" /><path d="M 14.003168132696942 100.73817937305945 a86.0,86.0 0 0,1 10.791469493833604,-42.45332614584628" fill="none" id="id10" stroke="none" /><text fill="#e1ed5e" style="font-size:6.75px; font-family:Arial;" text-anchor="middle"><textPath startOffset="22.145653131862435" xlink:href="#id10">October</textPath></text><path d="M 79.06263194458094 98.37931529534042 l -30.730714136274173 -2.378751628767164 a51.82264185037947,51.82264185037947 0 0,0 0.07626905342035976,-0.8863620105735484 l 30.68535146015607 2.905934686716393" fill="#a7ff21" stroke="none" /><path d="M 79.13060592940154 97.66154086499901 l -6.601979138584697 -0.7397655328891225 a27.643295988435128,27.643295988435128 0 0,0 0.05688978959650696,-0.4711290678541877 l 6.588307262728521 0.8529882776667463" fill="#ff0000" stroke="none" /><path d="M 79.22317932658666 96.9465228501225 l -31.42428424945241 -4.6182876300098625 a52.76183592338272,52.76183592338272 0 0,0 0.1393879966226108,-0.8949709285191758 l 31.34037476069153 5.157046740460489" fill="#9cff22" stroke="none" /><path d="M 79.56144815229197 95.17655741523228 l -30.908354533458724 -7.294287510810182 a52.75740874593423,52.75740874593423 0 0,0 0.21558303519425231,-0.8796523514836962 l 30.778583971748173 7.823795686901996" fill="#9cff22" stroke="none" /><path d="M 79.83685265289637 94.1308016681162 l -30.617572859925467 -8.91232923423627 a52.88832670762558,52.88832670762558 0 0,0 0.261227232141202,-0.8695404962453119 l 30.460069307780635 9.436607334072304" fill="#9aff22" stroke="none" /><path d="M 80.28708602549916 92.7611449362534 l -29.81872115658592 -10.949847441023273 a52.76563064691001,52.76563064691001 0 0,0 0.31953186511750414,-0.8475962348934614 l 29.626358607653977 11.46011195611088" fill="#9cff22" stroke="none" /><path d="M 80.5471966667186 92.08871423366112 l -29.483850757460537 -11.990825426959708 a52.82887603903144,52.82887603903144 0 0,0 0.34885713184760714,-0.8371301194546209 l 29.27366778107645 12.495188055855593" fill="#9bff22" stroke="none" /><path d="M 81.29705330413844 90.45014215332179 l -28.341689734639495 -14.47146872104147 a52.8225514998193,52.8225514998193 0 0,0 0.41929014815121723,-0.8040441445582847 l 28.08909151751334 14.955859108704242" fill="#9bff22" stroke="none" /><line stroke="#e1ed5e" stroke-width="0.3" x1="26.387840678322718" x2="22.05771365940052" y1="57.49999999999999" y2="54.99999999999999" /><path d="M 25.521815274538284 56.99999999999999 a86.0,86.0 0 0,1 29.574782752854787,-30.34633250058573" fill="none" id="id11" stroke="none" /><text fill="#e1ed5e" style="font-size:6.75px; font-family:Arial;" text-anchor="middle"><textPath startOffset="21.40746469413373" xlink:href="#id11">November</textPath></text><path d="M 81.99639281039701 89.18935116829357 l -27.265130331562048 -16.371927373279053 a52.80294542826165,52.80294542826165 0 0,0 0.47329551908154716,-0.7730926608805573 l 26.980066848025107 16.837557150284155" fill="#9bff22" stroke="none" /><path d="M 82.576782715395 88.27688183743585 l -26.470654714467653 -17.810637839679295 a52.90477050957716,52.90477050957716 0 0,0 0.5134540572039223,-0.7491448142209252 l 26.16101092044842 18.262417388970256" fill="#9aff23" stroke="none" /><path d="M 82.98947788004972 87.6856937992154 l -25.81599297279047 -18.688788039692128 a52.87061799783158,52.87061799783158 0 0,0 0.5385199244329323,-0.7306057032393717 l 25.491371028773717 19.12920005220036" fill="#9aff22" stroke="none" /><path d="M 84.58840730492382 85.73525988315684 l -23.36013880106279 -21.621795727641228 a52.83077340079508,52.83077340079508 0 0,0 0.6217532116765456,-0.6602803646083348 l 22.98552975564997 22.019617552194074" fill="#9bff22" stroke="none" /><path d="M 86.68645165197937 83.75963576809568 l -39.940645044061895 -48.721092695712954 a84.0,84.0 0 0,0 1.1229969185790178,-0.9046068248264043 l 39.09839735512763 49.399547814332756" fill="#4dd2ff" stroke="none" /><line stroke="#e1ed5e" stroke-width="0.3" x1="56.869717070023135" x2="54.33264160355391" y1="26.7553504044142" y2="22.446841604673864" /><path d="M 56.362301976729285 25.89364864446614 a86.0,86.0 0 0,1 42.16139366436587,-11.88097634709845" fill="none" id="id12" stroke="none" /><text fill="#e1ed5e" style="font-size:6.75px; font-family:Arial;" text-anchor="middle"><textPath startOffset="22.145653131862474" xlink:href="#id12">December</textPath></text></svg>