<?xml version="1.0" encoding="utf-8" ?>
<svg baseProfile="full" height="200mm" version="1.1" viewBox="0,0,200,200" width="200mm" xmlns="http://www.w3.org/2000/svg" xmlns:ev="http://www.w3.org/2001/xml-events" xmlns:xlink="http://www.w3.org/1999/xlink"><defs /><rect fill="#1a1a1a" height="200" width="200" x="0" y="0" /><text alignment-baseline="middle" fill="#e1ed5e" style="dominant-baseline: central; font-size:9.0px; font-family:Arial;" text-anchor="middle" x="100.0" y="100.0">2024</text><line stroke="#e1ed5e" stroke-width="0.3" x1="100.0" x2="100.0" y1="15.0" y2="10.0" /><path d="M 100.0 14.0 a86.0,86.0 0 0,1 42.35913384403234,11.155469271406648" fill="none" id="id13" stroke="none" /><text fill="#e1ed5e" style="font-size:6.75px; font-family:Arial;" text-anchor="middle"><textPath startOffset="22.145653131862478" xlink:href="#id13">January</textPath></text><line stroke="#e1ed5e" stroke-width="0.3" x1="143.13028292997686" x2="145.6673583964461" y1="26.7553504044142" y2="22.446841604673864" /><path d="M 143.63769802327073 25.89364864446614 a86.0,86.0 0 0,1 29.32050498858742,28.57503671076993" fill="none" id="id14" stroke="none" /><text fill="#e1ed5e" style="font-size:6.75px; font-family:Arial;" text-anchor="middle"><textPath startOffset="20.669276256404974" xlink:href="#id14">February</textPath></text><line stroke="#e1ed5e" stroke-width="0.3" x1="172.87174338648825" x2="177.1583165268699" y1="56.24261187166439" y2="53.66864786411523" /><path d="M 173.72905801456457 55.72781907015455 a86.0,86.0 0 0,1 12.242430191666344,42.057860355516425" fill="none" id="id15" stroke="none" /><text fill="#e1ed5e" style="font-size:6.75px; font-family:Arial;" text-anchor="middle"><textPath startOffset="22.145653131862474" xlink:href="#id15">March</textPath></text><line stroke="#e1ed5e" stroke-width="0.3" x1="184.99686870605535" x2="189.99668451229388" y1="99.2704041080226" y2="99.22748670261217" /><path d="M 185.99683186730306 99.26182062694052 a86.0,86.0 0 0,1 -10.086455211305974,41.156179273409016" fill="none" id="id16" stroke="none" /><text fill="#e1ed5e" style="font-size:6.75px; font-family:Arial;" text-anchor="middle"><textPath startOffset="21.40746469413373" xlink:href="#id16">April</textPath></text><path d="M 120.35273937422433 105.17358676015961 l 28.66721871606079 7.287094895335889 a50.578897561067016,50.578897561067016 0 0,0 -0.2211273735907583,0.8396566551008969 l -28.5379018616653 -7.778132054809588" fill="#b2ff20" stroke="none" /><line stroke="#e1ed5e" stroke-width="0.3" x1="174.33088141563837" x2="178.70328620479359" y1="141.23008692659167" y2="143.65538615756765" /><path d="M 175.20536237346943 141.71514677278685 a86.0,86.0 0 0,1 -30.301960400862466,31.631185727798858" fill="none" id="id17" stroke="none" /><text fill="#e1ed5e" style="font-size:6.75px; font-family:Arial;" text-anchor="middle"><textPath startOffset="22.145653131862474" xlink:href="#id17">May</textPath></text><path d="M 118.18653347947321 110.5 l 54.559600438419636 31.499999999999986 a84.0,84.0 0 0,0 -0.7317051594809385,1.242595326825802 l -54.010821568808936 -32.43194649511934" fill="#4dd2ff" stroke="none" /><path d="M 117.21940702142032 112.02048342749411 l 25.68947017142476 17.933245324451637 a52.3297010128646,52.3297010128646 0 0,0 -0.52051830666804,0.7321741846220168 l -25.377836766226757 -18.371596735783157" fill="#9cff22" stroke="none" /><path d="M 111.8722381534696 117.32195027204791 l 17.84523306244811 26.036728349363045 a52.565227168382876,52.565227168382876 0 0,0 -0.7486883125279793,0.5037509095665964 l -17.395648461823125 -26.339228932986764" fill="#9aff23" stroke="none" /><line stroke="#e1ed5e" stroke-width="0.3" x1="143.1302829299769" x2="145.66735839644613" y1="173.24464959558577" y2="177.55315839532614" /><path d="M 143.63769802327073 174.10635135553383 a86.0,86.0 0 0,1 -40.68552437913181,11.842963189579606" fill="none" id="id18" stroke="none" /><text fill="#e1ed5e" style="font-size:6.75px; font-family:Arial;" text-anchor="middle"><textPath startOffset="21.407464694133747" xlink:href="#id18">June</textPath></text><path d="M 109.06512990194946 118.94263497670748 l 10.134663531915143 21.177548912512858 a44.47764858002192,44.47764858002192 0 0,0 -0.6915454400873396,0.3236781841371646 l -9.769629377956297 -21.348403328220556" fill="#ffff18" stroke="none" /><path d="M 107.407793817531 119.65005319985036 l 7.013065928240574 18.602990577013134 a40.881004806656236,40.881004806656236 0 0,0 -0.6587893103739165,0.24191655995207287 l -6.692687466212531 -18.72063798597393" fill="#ffce13" stroke="none" /><path d="M 106.72888874123015 119.89276391827305 l 7.533755304241793 22.27220889640112 a44.51188546478399,44.51188546478399 0 0,0 -0.7259194607674682,0.23862414534686832 l -7.15031310582659 -22.398253963150008" fill="#ffff18" stroke="none" /><path d="M 104.9986988182912 120.39639698878246 l 6.969523891373697 28.438035832664294 a50.27961996495732,50.27961996495732 0 0,0 -0.8400715222800927,0.19825459186193886 l -6.480320215353725 -28.55348656817246" fill="#b5ff1f" stroke="none" /><path d="M 104.29559338865022 120.5559693870025 l 2.7848688499394325 13.326605580832197 a34.61447431296673,34.61447431296673 0 0,0 -0.5826827771967663,0.11655287442227433 l -2.5556895872117074 -13.372447851917332" fill="#ff750a" stroke="none" /><path d="M 102.51750503828377 120.84855314841334 l 2.8731925257263145 23.79415578809144 a44.966999915672694,44.966999915672694 0 0,0 -0.7671457944050196,0.08596028637608505 l -2.464310829720495 -23.839971834974495" fill="#f9ff18" stroke="none" /><line stroke="#e1ed5e" stroke-width="0.3" x1="101.45913802915013" x2="101.54496967792366" y1="184.9874750549273" y2="189.98673829345242" /><path d="M 101.47630435890484 185.9873277026323 a86.0,86.0 0 0,1 -42.54439059252881,-10.42667462771756" fill="none" id="id19" stroke="none" /><text fill="#e1ed5e" style="font-size:6.75px; font-family:Arial;" text-anchor="middle"><textPath startOffset="22.145653131862474" xlink:href="#id19">July</textPath></text><path d="M 100.0 121.0 l 3.731310969709406e-15 30.46846627376391 a51.46846627376391,51.46846627376391 0 0,0 -0.8835246640244597,-0.007583996624184245 l 0.5230317391756039 -30.46397667533416" fill="#a7ff21" stroke="none" /><path d="M 99.27912038922189 120.98762331915562 l -0.9966695738397566 29.016947180450718 a50.03405886045705,50.03405886045705 0 0,0 -0.8581418616246659,-0.0368523038953421 l 1.4946371960652614 -28.995562308129546" fill="#b8ff1f" stroke="none" /><path d="M 97.84075906011543 120.88869738790638 l -3.6524021673831473 35.33367777728339 a56.52194852286675,56.52194852286675 0 0,0 -0.9642754727290901,-0.10804907800545846 l 4.258413541713036 -35.265772938770965" fill="#6cff28" stroke="none" /><path d="M 92.59220618246901 119.65005319985036 l -10.468999871560305 27.770265951320948 a50.67806646865367,50.67806646865367 0 0,0 -0.8113986490456198,-0.313866428279091 l 10.944170783099453 -27.586459634903814" fill="#b0ff20" stroke="none" /><path d="M 91.92203290615298 119.3841803445677 l -13.679267184547111 32.825261480547645 a56.56149802767809,56.56149802767809 0 0,0 -0.8930385162759472,-0.3811850392455275 l 14.24074077599349 -32.585601791642716" fill="#6bff28" stroke="none" /><path d="M 90.28995756902619 118.62028667847754 l -13.873568734239662 26.604397346510627 a51.00449745612637,51.00449745612637 0 0,0 -0.7728667397964413,-0.41150800704936663 l 14.328224289822664 -26.362318871738687" fill="#acff20" stroke="none" /><line stroke="#e1ed5e" stroke-width="0.3" x1="58.13341422392154" x2="55.67067388415222" y1="173.97424548756322" y2="178.32567169271397" /><path d="M 57.64086615596768 174.84453072859336 a86.0,86.0 0 0,1 -31.369924170532247,-30.572349798747897" fill="none" id="id20" stroke="none" /><text fill="#e1ed5e" style="font-size:6.75px; font-family:Arial;" text-anchor="middle"><textPath startOffset="22.145653131862474" xlink:href="#id20">August</textPath></text><path d="M 89.65649057296885 118.27599006163327 l -15.110980786054792 26.69965514274548 a51.67920020238553,51.67920020238553 0 0,0 -0.7683159789588151,-0.4435874372745661 l 15.567089232874007 -26.436320808194743" fill="#a4ff21" stroke="none" /><path d="M 88.1277618465304 117.32195027204791 l -14.028834713677554 20.468489104060367 a45.81465795909189,45.81465795909189 0 0,0 -0.6449065613763086,-0.450194865808258 l 14.378136366227627 -20.224649422446983" fill="#eeff19" stroke="none" /><path d="M 87.83215693770417 117.11559508785305 l -16.873566285062886 23.734784114539206 a50.12142194571195,50.12142194571195 0 0,0 -0.6969717616765494,-0.5045538065242199 l 17.27851905711339 -23.441629536641923" fill="#b7ff1f" stroke="none" /><path d="M 85.86807049272751 115.53346607816431 l -23.854408879886634 26.220174036368807 a56.447571842176764,56.447571842176764 0 0,0 -0.7111593805264748,-0.6582385056222287 l 24.300998031727076 -25.8068177846142" fill="#6cff28" stroke="none" /><path d="M 84.3458050057657 113.99807769240083 l -21.956384658679717 19.63353455157785 a50.45434613546713,50.45434613546713 0 0,0 -0.5717893407354628,-0.6505913078353988 l 22.29018506337377 -19.25373096593115" fill="#b3ff20" stroke="none" /><path d="M 84.1078160697243 113.72728997021213 l -26.805133567031604 23.153635949551056 a56.420418450813756,56.420418450813756 0 0,0 -0.6268185882751659,-0.7383907208752226 l 27.198646718813883 -22.69007844622628" fill="#6dff28" stroke="none" /><path d="M 82.78059297857968 112.02048342749411 l -29.233963625317244 20.40757703450268 a56.65240285963252,56.65240285963252 0 0,0 -0.5498257684221874,-0.8022122278701344 l 29.579979130554758 -19.902730071562495" fill="#6aff28" stroke="none" /><path d="M 82.37810715431573 111.42229804090323 l -29.9247073136036 19.396833740621016 a56.66125722638133,56.66125722638133 0 0,0 -0.522045278263785,-0.820741886846642 l 30.25327028349328 -18.8802781790957" fill="#6aff28" stroke="none" /><line stroke="#e1ed5e" stroke-width="0.3" x1="26.387840678322732" x2="22.057713659400548" y1="142.50000000000003" y2="145.00000000000006" /><path d="M 25.521815274538298 143.00000000000003 a86.0,86.0 0 0,1 -11.493303480769221,-40.785679425670985" fill="none" id="id21" stroke="none" /><text fill="#e1ed5e" style="font-size:6.75px; font-family:Arial;" text-anchor="middle"><textPath startOffset="21.40746469413373" xlink:href="#id21">September</textPath></text><path d="M 81.1358732173502 109.22738970284198 l -26.794776989352094 13.106668128889895 a50.8285907033834,50.8285907033834 0 0,0 -0.3766658572434497,-0.7870867730661966 l 27.015822104555454 -12.644768853758594" fill="#afff20" stroke="none" /><path d="M 80.41425534168474 107.57618678355246 l -28.071365288525968 10.858607135211047 a51.098353743663736,51.098353743663736 0 0,0 -0.3094353668471321,-0.8208140736951448 l 28.253631339187535 -10.375124781321757" fill="#abff21" stroke="none" /><path d="M 80.16572619554312 106.89939002012753 l -28.6277218879361 9.958207728695879 a51.31026825451853,51.31026825451853 0 0,0 -0.28224209554425966,-0.834398604342841 l 28.794449405052728 -9.465307449878875" fill="#a9ff21" stroke="none" /><path d="M 79.48165901384964 104.47187691870673 l -30.3913759383532 6.623658934130982 a52.10480009744488,52.10480009744488 0 0,0 -0.1829679636297305,-0.8755679411167006 l 30.500601612807298 -6.100974541728872" fill="#9fff22" stroke="none" /><path d="M 79.17382384314188 102.69636545807758 l -29.040190034759554 3.7598340048587873 a50.28257142054025,50.28257142054025 0 0,0 -0.10348132544263464,-0.8569738215220062 l 29.10045344646185 -3.2607665064133817" fill="#b5ff1f" stroke="none" /><path d="M 79.0935383218832 101.97986365728391 l -29.113355139624964 2.7570650007636965 a50.243612206845505,50.243612206845505 0 0,0 -0.0739451445663411,-0.8593546670722939 l 29.156393906889047 -2.2568892863157406" fill="#b6ff1f" stroke="none" /><line stroke="#e1ed5e" stroke-width="0.3" x1="15.003131293944662" x2="10.003315487706104" y1="100.72959589197737" y2="100.7725132973878" /><path d="M 14.003168132696942 100.73817937305945 a86.0,86.0 0 0,1 10.791469493833604,-42.45332614584628" fill="none" id="id22" stroke="none" /><text fill="#e1ed5e" style="font-size:6.75px; font-family:Arial;" text-anchor="middle"><textPath startOffset="22.145653131862435" xlink:href="#id22">October</textPath></text><path d="M 79.06263194458094 98.37931529534042 l -26.524485113130172 -2.053162900324272 a47.60383033346763,47.60383033346763 0 0,0 0.070060092443751,-0.8142044723847954 l 26.48533139798868 2.508188420084748" fill="#d7ff1c" stroke="none" /><path d="M 79.13060592940154 97.66154086499901 l -5.926034243476884 -0.6640244975061615 a26.9631208597637,26.9631208597637 0 0,0 0.05548999197559073,-0.45953673550414387 l 5.913762165241624 0.7656549099337416" fill="#ff0000" stroke="none" /><path d="M 79.22317932658666 96.9465228501225 l -29.096348143491138 -4.276161189316098 a50.40889371948992,50.40889371948992 0 0,0 0.13317191459609323,-0.8550592227925626 l 29.018654736756776 4.775008594040111" fill="#b4ff20" stroke="none" /><path d="M 79.56144815229197 95.17655741523228 l -34.359104026273386 -8.108654995210713 a56.30295051861291,56.30295051861291 0 0,0 0.23007121183012594,-0.9387690562604605 l 34.21484528792696 8.697279876079293" fill="#6eff28" stroke="none" /><path d="M 79.83685265289637 94.1308016681162 l -28.147396254908543 -8.193296825255421 a50.31562772306914,50.31562772306914 0 0,0 0.2485200985125773,-0.8272425811668516 l 28.002599836392335 8.675277010012998" fill="#b5ff20" stroke="none" /><path d="M 80.28708602549916 92.7611449362534 l -27.254566887942072 -10.008254476339829 a50.03405886045705,50.03405886045705 0 0,0 0.302990335774885,-0.8037178630602552 l 27.07874586835275 10.47464061959423" fill="#b8ff1f" stroke="none" /><path d="M 80.5471966667186 92.08871423366112 l -26.988447556497512 -10.975966669236119 a50.13499864139346,50.13499864139346 0 0,0 0.3310680283695254,-0.7944427470029595 l 26.796053683591506 11.43764192568034" fill="#b7ff1f" stroke="none" /><path d="M 81.29705330413844 90.45014215332179 l -25.965459648690636 -13.258148707846289 a50.154478248240835,50.154478248240835 0 0,0 0.3981117537501732,-0.7634317808183092 l 25.734039825965525 13.701926731769083" fill="#b7ff1f" stroke="none" /><line stroke="#e1ed5e" stroke-width="0.3" x1="26.387840678322718" x2="22.05771365940052" y1="57.49999999999999" y2="54.99999999999999" /><path d="M 25.521815274538284 56.99999999999999 a86.0,86.0 0 0,1 29.574782752854787,-30.34633250058573" fill="none" id="id23" stroke="none" /><text fill="#e1ed5e" style="font-size:6.75px; font-family:Arial;" text-anchor="middle"><textPath startOffset="21.40746469413373" xlink:href="#id23">November</textPath></text><path d="M 81.99639281039701 89.18935116829357 l -25.47481655956107 -15.296895393085252 a50.71466451788207,50.71466451788207 0 0,0 0.454577358769657,-0.7425179527354444 l 25.20847123633602 15.73195046194524" fill="#b0ff20" stroke="none" /><path d="M 82.576782715395 88.27688183743585 l -24.58207047418682 -16.539914077981653 a50.628482014860346,50.628482014860346 0 0,0 0.49136210686142195,-0.7169119984452824 l 24.294518630510083 16.959460811496967" fill="#b1ff20" stroke="none" /><path d="M 82.98947788004972 87.6856937992154 l -23.86114344126264 -17.273627732563096 a50.457297591050065,50.457297591050065 0 0,0 0.5139387643801836,-0.6972566386793385 l 23.561102657298637 17.680690680511297" fill="#b3ff20" stroke="none" /><path d="M 84.58840730492382 85.73525988315684 l -21.585355979767836 -19.979083244219666 a50.412435466189436,50.412435466189436 0 0,0 0.5932923491721619,-0.6300559149094108 l 21.239207796859404 20.346680619073588" fill="#b4ff20" stroke="none" /><path d="M 86.68645165197937 83.75963576809568 l -18.473582148426086 -22.534766458639087 a50.139130679209565,50.139130679209565 0 0,0 0.6703105863450362,-0.5399547595628086 l 18.084020791725806 22.848569511995294" fill="#b7ff1f" stroke="none" /><line stroke="#e1ed5e" stroke-width="0.3" x1="56.869717070023135" x2="54.33264160355391" y1="26.7553504044142" y2="22.446841604673864" /><path d="M 56.362301976729285 25.89364864446614 a86.0,86.0 0 0,1 42.16139366436587,-11.88097634709845" fill="none" id="id24" stroke="none" /><text fill="#e1ed5e" style="font-size:6.75px; font-family:Arial;" text-anchor="middle"><textPath startOffset="22.145653131862474" xlink:href="#id24">December</textPath></text><path d="M 89.65649057296885 81.72400993836675 l -14.630376409948964 -25.85047326078833 a50.70344898666691,50.70344898666691 0 0,0 0.7611693796941579,-0.42220782389441186 l 14.184462842098702 26.09781400011589" fill="#b0ff20" stroke="none" /><path d="M 91.5904679813234 80.7573450057729 l -5.508228895196211 -12.60390566610548 a34.754963598714475,34.754963598714475 0 0,0 0.5487393758601031,-0.23422420949441575 l 5.2910544441656775 12.696604525259298" fill="#ff770b" stroke="none" /></svg>