<?xml version="1.0" encoding="utf-8" ?>
<svg baseProfile="full" height="200mm" version="1.1" viewBox="0,0,200,200" width="200mm" xmlns="http://www.w3.org/2000/svg" xmlns:ev="http://www.w3.org/2001/xml-events" xmlns:xlink="http://www.w3.org/1999/xlink"><defs /><rect fill="#1a1a1a" height="200" width="200" x="0" y="0" /><text alignment-baseline="middle" fill="#e1ed5e" style="dominant-baseline: central; font-size:9.0px; font-family:Arial;" text-anchor="middle" x="100.0" y="100.0">2024</text><line stroke="#e1ed5e" stroke-width="0.3" x1="100.0" x2="100.0" y1="15.0" y2="10.0" /><path d="M 100.0 14.0 a86.0,86.0 0 0,1 42.35913384403234,11.155469271406648" fill="none" id="id1" stroke="none" /><text fill="#e1ed5e" style="font-size:6.75px; font-family:Arial;" text-anchor="middle"><textPath startOffset="22.145653131862478" xlink:href="#id1">January</textPath></text><line stroke="#e1ed5e" stroke-width="0.3" x1="143.13028292997686" x2="145.6673583964461" y1="26.7553504044142" y2="22.446841604673864" /><path d="M 143.63769802327073 25.89364864446614 a86.0,86.0 0 0,1 29.32050498858742,28.57503671076993" fill="none" id="id2" stroke="none" /><text fill="#e1ed5e" style="font-size:6.75px; font-family:Arial;" text-anchor="middle"><textPath startOffset="20.669276256404974" xlink:href="#id2">February</textPath></text><line stroke="#e1ed5e" stroke-width="0.3" x1="172.87174338648825" x2="177.1583165268699" y1="56.24261187166439" y2="53.66864786411523" /><path d="M 173.72905801456457 55.72781907015455 a86.0,86.0 0 0,1 12.242430191666344,42.057860355516425" fill="none" id="id3" stroke="none" /><text fill="#e1ed5e" style="font-size:6.75px; font-family:Arial;" text-anchor="middle"><textPath startOffset="22.145653131862474" xlink:href="#id3">March</textPath></text><line stroke="#e1ed5e" stroke-width="0.3" x1="184.99686870605535" x2="189.99668451229388" y1="99.2704041080226" y2="99.22748670261217" /><path d="M 185.99683186730306 99.26182062694052 a86.0,86.0 0 0,1 -10.086455211305974,41.156179273409016" fill="none" id="id4" stroke="none" /><text fill="#e1ed5e" style="font-size:6.75px; font-family:Arial;" text-anchor="middle"><textPath startOffset="21.40746469413373" xlink:href="#id4">April</textPath></text><line stroke="#e1ed5e" stroke-width="0.3" x1="174.33088141563837" x2="178.70328620479359" y1="141.23008692659167" y2="143.65538615756765" /><path d="M 175.20536237346943 141.71514677278685 a86.0,86.0 0 0,1 -30.301960400862466,31.631185727798858" fill="none" id="id5" stroke="none" /><text fill="#e1ed5e" style="font-size:6.75px; font-family:Arial;" text-anchor="middle"><textPath startOffset="22.145653131862474" xlink:href="#id5">May</textPath></text><line stroke="#e1ed5e" stroke-width="0.3" x1="143.1302829299769" x2="145.66735839644613" y1="173.24464959558577" y2="177.55315839532614" /><path d="M 143.63769802327073 174.10635135553383 a86.0,86.0 0 0,1 -40.68552437913181,11.842963189579606" fill="none" id="id6" stroke="none" /><text fill="#e1ed5e" style="font-size:6.75px; font-family:Arial;" text-anchor="middle"><textPath startOffset="21.407464694133747" xlink:href="#id6">June</textPath></text><line stroke="#e1ed5e" stroke-width="0.3" x1="101.45913802915013" x2="101.54496967792366" y1="184.9874750549273" y2="189.98673829345242" /><path d="M 101.47630435890484 185.9873277026323 a86.0,86.0 0 0,1 -42.54439059252881,-10.42667462771756" fill="none" id="id7" stroke="none" /><text fill="#e1ed5e" style="font-size:6.75px; font-family:Arial;" text-anchor="middle"><textPath startOffset="22.145653131862474" xlink:href="#id7">July</textPath></text><line stroke="#e1ed5e" stroke-width="0.3" x1="58.13341422392154" x2="55.67067388415222" y1="173.97424548756322" y2="178.32567169271397" /><path d="M 57.64086615596768 174.84453072859336 a86.0,86.0 0 0,1 -31.369924170532247,-30.572349798747897" fill="none" id="id8" stroke="none" /><text fill="#e1ed5e" style="font-size:6.75px; font-family:Arial;" text-anchor="middle"><textPath startOffset="22.145653131862474" xlink:href="#id8">August</textPath></text><line stroke="#e1ed5e" stroke-width="0.3" x1="26.387840678322732" x2="22.057713659400548" y1="142.50000000000003" y2="145.00000000000006" /><path d="M 25.521815274538298 143.00000000000003 a86.0,86.0 0 0,1 -11.493303480769221,-40.785679425670985" fill="none" id="id9" stroke="none" /><text fill="#e1ed5e" style="font-size:6.75px; font-family:Arial;" text-anchor="middle"><textPath startOffset="21.40746469413373" xlink:href="#id9">September</textPath></text><path d="M 79.48165901384964 104.47187691870673 l -61.555022958451104 13.41563075612019 a84.0,84.0 0 0,0 -0.29496915670253276,-1.4115341948583637 l 61.776249825978 -12.35698010997642" fill="#4dd2ff" stroke="none" /><path d="M 79.17382384314188 102.69636545807758 l -59.083147165837666 7.64949628643268 a80.57627944455896,80.57627944455896 0 0,0 -0.1658256521215416,-1.3732742811045136 l 59.205754904218864 -6.634128328404767" fill="#48f9ff" stroke="none" /><path d="M 79.0935383218832 101.97986365728391 l -58.96301536679453 5.58385885885138 a80.22682382924498,80.22682382924498 0 0,0 -0.11807240414421546,-1.3721803121602616 l 59.050181393636485 -4.570857499315456" fill="#47fdff" stroke="none" /><line stroke="#e1ed5e" stroke-width="0.3" x1="15.003131293944662" x2="10.003315487706104" y1="100.72959589197737" y2="100.7725132973878" /><path d="M 14.003168132696942 100.73817937305945 a86.0,86.0 0 0,1 10.791469493833604,-42.45332614584628" fill="none" id="id10" stroke="none" /><text fill="#e1ed5e" style="font-size:6.75px; font-family:Arial;" text-anchor="middle"><textPath startOffset="22.145653131862435" xlink:href="#id10">October</textPath></text><path d="M 79.06263194458094 98.37931529534042 l -57.364613993638734 -4.440383922282383 a78.5362142308341,78.5362142308341 0 0,0 0.11558427947185877,-1.343264531929055 l 57.27993609146913 5.424469501587118" fill="#45ffed" stroke="none" /><path d="M 79.13060592940154 97.66154086499901 l -12.323826358201355 -1.3809104484783705 a33.40095197046643,33.40095197046643 0 0,0 0.06873902195736094,-0.5692577098574546 l 12.298305249984326 1.5922618352592612" fill="#ff0000" stroke="none" /><path d="M 79.22317932658666 96.9465228501225 l -58.65929206859536 -8.620895890421126 a80.28939527387891,80.28939527387891 0 0,0 0.21211123080550653,-1.3619062601015643 l 58.50265934565159 9.62659033245414" fill="#47fcff" stroke="none" /><path d="M 79.56144815229197 95.17655741523228 l -57.69621295254934 -13.616149158158722 a80.28113112081405,80.28113112081405 0 0,0 0.3280534493117354,-1.3385700217059533 l 57.453971976721306 14.604575004472792" fill="#47fcff" stroke="none" /><path d="M 79.83685265289637 94.1308016681162 l -57.153414682886954 -16.63652605139785 a80.52551393287484,80.52551393287484 0 0,0 0.3977334589865129,-1.3239253291691884 l 56.85940490389681 17.615188984157765" fill="#48faff" stroke="none" /><path d="M 80.28708602549916 92.7611449362534 l -55.66220886850134 -20.439934098442937 a80.29647883364879,80.29647883364879 0 0,0 0.4862499193039873,-1.289835680919485 l 55.30312826538291 21.392438059556568" fill="#47fcff" stroke="none" /><path d="M 80.5471966667186 92.08871423366112 l -55.03711076311601 -22.38311381350956 a80.41453816314676,80.41453816314676 0 0,0 0.5310199127030235,-1.2742544794757176 l 54.64476500587651 23.32460080242654" fill="#48fbff" stroke="none" /><path d="M 81.29705330413844 90.45014215332179 l -52.90505402332908 -27.01369754774625 a80.40273223019696,80.40273223019696 0 0,0 0.6382136521496365,-1.2238588296212591 l 52.433532302204505 27.917902620471995" fill="#48fbff" stroke="none" /><line stroke="#e1ed5e" stroke-width="0.3" x1="26.387840678322718" x2="22.05771365940052" y1="57.49999999999999" y2="54.99999999999999" /><path d="M 25.521815274538284 56.99999999999999 a86.0,86.0 0 0,1 29.574782752854787,-30.34633250058573" fill="none" id="id11" stroke="none" /><text fill="#e1ed5e" style="font-size:6.75px; font-family:Arial;" text-anchor="middle"><textPath startOffset="21.40746469413373" xlink:href="#id11">November</textPath></text><path d="M 81.99639281039701 89.18935116829357 l -50.89545495169984 -30.5612583532986 a80.36613383805258,80.36613383805258 0 0,0 0.7203562362469978,-1.1766477750365996 l 50.36333075099745 31.43044324445974" fill="#47fbff" stroke="none" /><path d="M 82.576782715395 88.27688183743585 l -49.4124179191116 -33.24687998212496 a80.55620935854432,80.55620935854432 0 0,0 0.7818182014536017,-1.1406961208408228 l 48.834409980842686 34.090210838035816" fill="#48f9ff" stroke="none" /><path d="M 82.98947788004972 87.6856937992154 l -48.19036958202508 -34.886111242055584 a80.4924573206154,80.4924573206154 0 0,0 0.8198654314102523,-1.1123049174232325 l 47.58440213103101 35.708222468747685" fill="#48faff" stroke="none" /><path d="M 84.58840730492382 85.73525988315684 l -43.60605937168949 -40.36111755376942 a80.41807994303167,80.41807994303167 0 0,0 0.9464218723833533,-1.0050672312339848 l 42.90678166556986 41.103726244947914" fill="#48fbff" stroke="none" /><path d="M 86.68645165197937 83.75963576809568 l -37.60915863377288 -45.8770583695479 a80.32245188613834,80.32245188613834 0 0,0 1.0738317376291044,-0.8650028352737051 l 36.81607612578853 46.515909498615" fill="#47fcff" stroke="none" /><line stroke="#e1ed5e" stroke-width="0.3" x1="56.869717070023135" x2="54.33264160355391" y1="26.7553504044142" y2="22.446841604673864" /><path d="M 56.362301976729285 25.89364864446614 a86.0,86.0 0 0,1 42.16139366436587,-11.88097634709845" fill="none" id="id12" stroke="none" /><text fill="#e1ed5e" style="font-size:6.75px; font-family:Arial;" text-anchor="middle"><textPath startOffset="22.145653131862474" xlink:href="#id12">December</textPath></text></svg>